<svg width="201" height="41" viewBox="0 0 201 41" fill="none" xmlns="http://www.w3.org/2000/svg">
<path fill-rule="evenodd" clip-rule="evenodd" d="M35.6028 12.6947L42.8851 19.977C43.1235 20.2155 43.2575 20.539 43.2575 20.8762C43.2575 21.2133 43.1235 21.5367 42.8851 21.7752L35.6034 29.0569L40.1769 33.6305C40.4153 33.8688 40.7387 34.0029 41.076 34.0029C41.4132 34.0029 41.7366 33.8688 41.9751 33.6305L53.831 21.7746C54.0695 21.5361 54.2035 21.2127 54.2035 20.8755C54.2035 20.5382 54.0695 20.2148 53.831 19.9763L41.9751 8.12057C41.7366 7.88212 41.4132 7.74817 41.076 7.74817C40.7387 7.74817 40.4153 7.88212 40.1769 8.12057L35.6028 12.6947Z" fill="white"/>
<path d="M20.1408 11.7961L26.524 5.41285C26.7625 5.17437 27.0859 5.04041 27.4232 5.04041C27.7604 5.04041 28.0838 5.17437 28.3223 5.41285L35.6048 12.6952L27.4232 20.8767L20.1408 13.5944C19.9023 13.3559 19.7683 13.0325 19.7683 12.6952C19.7683 12.358 19.9023 12.0346 20.1408 11.7961Z" fill="white"/>
<path d="M27.4215 20.8755L35.6031 29.057L28.3206 36.3395C28.0821 36.5778 27.7587 36.7119 27.4215 36.7119C27.0842 36.7119 26.7608 36.5778 26.5224 36.3395L20.1391 29.9562C19.9006 29.7177 19.7666 29.3942 19.7666 29.057C19.7666 28.7197 19.9006 28.3963 20.1391 28.1578L27.4215 20.8755Z" fill="white"/>
<path fill-rule="evenodd" clip-rule="evenodd" d="M84.263 9.96803C85.651 9.96803 86.776 8.84298 86.776 7.45523C86.776 6.06743 85.651 4.94238 84.263 4.94238C82.8755 4.94238 81.7505 6.06743 81.7505 7.45523C81.7505 8.84298 82.8755 9.96803 84.263 9.96803ZM114.991 12.3737H117.781C118.169 12.3781 118.539 12.5355 118.812 12.8116C119.085 13.0878 119.238 13.4604 119.237 13.8485V27.6483V28.4338C119.237 28.4829 119.234 28.5341 119.23 28.5869C119.227 28.643 119.223 28.7011 119.223 28.7605C119.148 30.0541 118.715 32.2374 117.026 33.8852L116.823 34.0801L116.795 34.1047L116.603 34.2641C116.526 34.3272 116.452 34.3849 116.367 34.4453C116.246 34.5385 116.118 34.6261 116.021 34.6923C115.983 34.7179 115.951 34.7401 115.924 34.7584C115.867 34.7993 115.806 34.8371 115.748 34.8723C115.714 34.8937 115.68 34.9146 115.65 34.9341L115.409 35.0632C115.319 35.1159 115.228 35.1636 115.133 35.206C115.059 35.2472 114.952 35.3022 114.909 35.3213C114.893 35.3281 114.878 35.3342 114.864 35.3401C114.837 35.351 114.81 35.362 114.782 35.3763L114.755 35.39C113.02 36.2027 111.126 36.622 109.21 36.6177C106.916 36.597 104.663 36.0114 102.649 34.9122H102.633L102.385 34.7748C102.047 34.5826 101.8 34.2639 101.697 33.889C101.594 33.514 101.644 33.1137 101.837 32.7756V32.7564L102.284 31.9874L103.034 30.7214C104.044 31.4082 105.139 31.962 106.29 32.3692L106.362 32.3911L106.404 32.4048C107.309 32.7131 108.257 32.8763 109.213 32.8882C109.955 32.8906 110.694 32.7926 111.41 32.597C111.437 32.5945 111.465 32.587 111.49 32.5751C111.606 32.5433 111.72 32.5048 111.832 32.4598C111.947 32.4347 112.059 32.397 112.165 32.3472C112.368 32.273 112.552 32.1906 112.733 32.1056C112.766 32.0949 112.798 32.0801 112.827 32.0615C115.013 30.8642 115.035 28.387 114.993 27.6675C114.995 27.6438 114.995 27.62 114.993 27.5961V27.4672V27.0223L114.67 27.3325C112.832 29.0215 111.099 29.3621 109.07 29.3621H108.663C108.595 29.3616 108.528 29.3562 108.46 29.3455L108.384 29.3396C108.308 29.3341 108.232 29.3284 108.156 29.318L107.647 29.2329L107.51 29.2054C107.466 29.1943 107.424 29.184 107.382 29.1736C107.248 29.1409 107.116 29.1088 106.947 29.0544C106.724 28.983 106.5 28.9006 106.252 28.8017L105.925 28.648L105.758 28.5683L105.675 28.5244L105.346 28.3404L105.308 28.302H105.28C105.197 28.2562 105.14 28.218 105.058 28.1636L105.006 28.129C104.893 28.0549 104.786 27.9806 104.676 27.8955C104.435 27.7168 104.206 27.5233 103.99 27.3161C103.933 27.2702 103.879 27.219 103.827 27.1703L103.825 27.1678L103.789 27.1293C103.708 27.0515 103.636 26.9712 103.561 26.8882L103.555 26.8822L103.19 26.4565C103.152 26.4098 103.113 26.363 103.075 26.3109L103.048 26.2724L103.004 26.2258C102.995 26.2107 102.986 26.198 102.976 26.1832C102.964 26.1659 102.95 26.1457 102.932 26.116L102.772 25.8935L102.718 25.8105C102.661 25.7238 102.608 25.6407 102.553 25.5529L102.504 25.4705C102.503 25.4615 102.503 25.4523 102.504 25.4432C102.437 25.3448 102.378 25.2409 102.328 25.1328L102.204 24.8994L102.037 24.5561L102.023 24.5254C101.961 24.3874 101.89 24.2335 101.844 24.1056L101.809 24.0074C101.769 23.9005 101.729 23.7898 101.693 23.6746C101.611 23.4246 101.545 23.1912 101.484 22.9551C101.454 22.8396 101.427 22.7188 101.405 22.5925C101.329 22.2179 101.274 21.8393 101.243 21.4583C101.213 21.181 101.213 20.9447 101.213 20.6757C101.213 20.4065 101.227 20.11 101.252 19.7859C101.268 19.6349 101.284 19.5002 101.303 19.3603C101.314 19.2809 101.328 19.2043 101.341 19.1268C101.352 19.0674 101.363 19.0074 101.372 18.9456C101.375 18.9306 101.378 18.9144 101.382 18.8975C101.39 18.8615 101.399 18.8227 101.399 18.7889C101.406 18.7597 101.414 18.7287 101.421 18.6966C101.433 18.6384 101.447 18.5764 101.463 18.5143C101.472 18.4588 101.486 18.4038 101.502 18.3496L101.567 18.0914C101.585 18.043 101.6 17.9903 101.617 17.9367C101.626 17.9052 101.637 17.8729 101.647 17.8416C101.679 17.7274 101.718 17.6155 101.765 17.5064C101.799 17.3937 101.84 17.2828 101.885 17.1742L101.933 17.0631C101.964 16.9887 101.994 16.9143 102.026 16.8446C102.119 16.6358 102.295 16.2844 102.415 16.0674C102.432 16.033 102.452 16.0008 102.476 15.9714L102.495 15.9329L102.518 15.8971C102.567 15.8015 102.624 15.7098 102.688 15.6225C102.732 15.5543 102.78 15.4845 102.83 15.4117L102.874 15.3479C102.934 15.2611 102.991 15.1832 103.052 15.1002L103.072 15.0733L103.245 14.8535C103.363 14.7025 103.492 14.5653 103.621 14.4279L103.657 14.3895C103.758 14.2796 103.863 14.1753 103.973 14.0682C104.038 14.0105 104.11 13.9473 104.176 13.8842C104.23 13.8328 104.287 13.785 104.343 13.738L104.382 13.7057L104.483 13.626C104.511 13.6019 104.541 13.5799 104.572 13.5601C104.739 13.4393 104.926 13.3047 105.157 13.1482L105.203 13.118L105.272 13.074C105.324 13.0404 105.377 13.0112 105.429 12.9829C105.479 12.9556 105.528 12.9293 105.571 12.901C105.642 12.8543 105.719 12.8129 105.794 12.7726L105.846 12.7445L106.12 12.6236L106.159 12.6044C106.2 12.5882 106.24 12.5716 106.28 12.5551C106.341 12.5296 106.403 12.5042 106.466 12.4808C106.961 12.2892 107.475 12.1502 107.999 12.0661C108.051 12.054 108.104 12.0458 108.158 12.0414L108.381 12.014H108.441C108.524 11.9948 108.609 11.9947 108.715 11.9947H109.053C111.283 11.9947 112.907 12.6154 114.645 14.1451H114.659L114.991 14.4664V12.3737ZM114.964 22.285L114.982 22.2273C115.118 21.7385 115.18 21.2322 115.166 20.725C115.166 20.2014 115.085 19.681 114.927 19.1817C114.865 18.9848 114.788 18.7929 114.697 18.6077L114.672 18.5528L114.623 18.4347C114.596 18.3781 114.565 18.3231 114.532 18.2699C114.473 18.164 114.409 18.0613 114.34 17.9623C114.279 17.8673 114.213 17.7758 114.143 17.6877C114.007 17.5091 113.859 17.341 113.698 17.1852C113.619 17.1041 113.536 17.0272 113.45 16.9545L113.42 16.9325C113.395 16.9122 113.372 16.8923 113.349 16.8724C113.298 16.8279 113.245 16.7832 113.175 16.732C113.074 16.6579 112.961 16.5837 112.84 16.5069C112.833 16.5004 112.825 16.4948 112.816 16.4903C112.771 16.4584 112.722 16.4299 112.673 16.4053C112.301 16.1903 111.902 16.0259 111.487 15.9163C111.298 15.8642 111.106 15.8247 110.912 15.7984H110.846C110.573 15.7631 110.298 15.7483 110.023 15.7543C109.955 15.7508 109.887 15.7508 109.82 15.7543C109.762 15.7514 109.704 15.7514 109.646 15.7543C109.493 15.7694 109.34 15.7923 109.188 15.823H109.149C109.066 15.8427 108.983 15.864 108.899 15.8858L108.834 15.9027C108.727 15.9302 108.622 15.9604 108.521 15.996C108.436 16.0222 108.353 16.0553 108.273 16.0949C108.172 16.1334 108.06 16.1828 107.999 16.2102C107.966 16.2251 107.931 16.2442 107.891 16.2658C107.857 16.2841 107.819 16.3043 107.776 16.3256L107.729 16.353C107.668 16.3845 107.609 16.4193 107.551 16.4574L107.37 16.5754C107.22 16.6742 107.078 16.7853 106.947 16.9077C106.873 16.9624 106.804 17.0241 106.741 17.0917C106.341 17.4686 106.009 17.9117 105.76 18.4018C105.73 18.4595 105.7 18.5226 105.67 18.5857C105.64 18.6489 105.61 18.7148 105.582 18.778L105.538 18.8823C105.525 18.9198 105.511 18.9567 105.498 18.9922C105.484 19.0319 105.47 19.0699 105.459 19.1047C105.42 19.2119 105.39 19.3218 105.365 19.4151C105.34 19.4941 105.323 19.5749 105.311 19.6568C105.309 19.6632 105.309 19.6697 105.311 19.676C105.309 19.6934 105.309 19.7109 105.311 19.7282V19.7749C105.245 20.0845 105.214 20.4003 105.217 20.7169C105.216 20.7721 105.22 20.8274 105.23 20.8816V21.1562C105.233 21.2041 105.239 21.2518 105.247 21.299C105.262 21.4466 105.284 21.5932 105.313 21.7385C105.343 21.8867 105.384 22.0405 105.434 22.1998C105.508 22.4361 105.6 22.6665 105.709 22.8891L105.73 22.9331C105.75 22.9767 105.771 23.0169 105.793 23.0578L105.81 23.0896C105.987 23.4208 106.202 23.7304 106.45 24.0123C106.549 24.1195 106.653 24.232 106.757 24.3309L106.794 24.3651C106.879 24.4462 106.944 24.5089 107.068 24.6055C107.208 24.7154 107.356 24.8197 107.513 24.9213C107.623 24.9927 107.732 25.0587 107.837 25.1191C108.186 25.3025 108.555 25.4462 108.936 25.5475L108.996 25.5618C109.049 25.5745 109.105 25.5877 109.166 25.5997H109.227L109.26 25.6067L109.297 25.6146C109.357 25.628 109.415 25.6408 109.468 25.6408C109.631 25.6701 109.795 25.6876 109.96 25.693C109.999 25.6973 110.038 25.6973 110.077 25.693H110.218C110.627 25.6919 111.035 25.6412 111.432 25.5419C111.558 25.5124 111.683 25.4756 111.805 25.4321C111.935 25.3937 112.055 25.3497 112.178 25.3002C112.775 25.0355 113.318 24.6631 113.78 24.2018C113.957 24.0242 114.12 23.8323 114.266 23.6278C114.345 23.5256 114.417 23.4183 114.482 23.3065C114.604 23.116 114.71 22.9158 114.799 22.7078C114.854 22.5789 114.911 22.4388 114.964 22.285ZM86.394 28.9968V13.843C86.3925 13.4557 86.2385 13.0846 85.965 12.8105C85.6915 12.5364 85.3205 12.3814 84.933 12.3792H82.14V27.5303C82.141 27.9194 82.296 28.2924 82.5715 28.5673C82.847 28.8423 83.2205 28.9968 83.6095 28.9968H86.394ZM100.636 15.5649L101.163 12.6154L100.998 12.544C100.356 12.3074 99.676 12.1865 98.991 12.187C97.9935 12.1857 97.012 12.4368 96.1375 12.917C95.263 13.3972 94.5245 14.0908 93.9905 14.9332L93.628 15.5016V14.0325C93.627 13.643 93.472 13.2697 93.1965 12.9944C92.9215 12.719 92.548 12.5639 92.1585 12.5632H89.371V27.7033C89.372 28.0921 89.5265 28.4646 89.8015 28.7394C90.0765 29.0143 90.449 29.169 90.8375 29.1698H93.6385V20.4258C93.637 19.691 93.8105 18.9662 94.1445 18.3119C94.479 17.6575 94.9645 17.0923 95.561 16.6633C95.6075 16.618 95.659 16.5784 95.715 16.5452C95.922 16.4051 96.142 16.2848 96.3715 16.1855C96.7425 16.0365 97.1385 15.9601 97.5385 15.9604C98.209 15.9194 98.8815 16.0127 99.516 16.235C99.631 16.2744 99.7535 16.2886 99.875 16.2762C99.9965 16.2639 100.113 16.2254 100.218 16.1636C100.328 16.1001 100.422 16.0138 100.493 15.9105C100.566 15.8069 100.615 15.6891 100.636 15.5649ZM134.017 12.6154L133.495 15.5649C133.473 15.6894 133.425 15.8076 133.352 15.9111C133.279 16.0146 133.184 16.1008 133.075 16.1636C132.97 16.2256 132.853 16.2641 132.731 16.2765C132.61 16.2887 132.487 16.2746 132.372 16.235C131.739 16.0129 131.069 15.9195 130.4 15.9604C129.999 15.9596 129.602 16.0361 129.23 16.1855C129 16.2852 128.78 16.4056 128.571 16.5452C128.516 16.5784 128.465 16.618 128.42 16.6633C127.821 17.0909 127.333 17.6554 126.996 18.3099C126.659 18.9643 126.483 19.6897 126.484 20.4258V29.1698H123.704C123.316 29.169 122.944 29.0143 122.669 28.7394C122.394 28.4646 122.239 28.0921 122.238 27.7033V12.5632H125.029C125.418 12.5639 125.79 12.7191 126.065 12.9945C126.34 13.27 126.495 13.6433 126.495 14.0325V15.5016L126.857 14.9332C127.391 14.091 128.129 13.3975 129.003 12.9173C129.877 12.4372 130.858 12.1859 131.855 12.187C132.541 12.1865 133.222 12.3074 133.865 12.544L134.017 12.6154ZM182.26 28.9968V17.9569C182.257 16.7322 181.878 15.5382 181.172 14.5368C180.467 13.5356 179.471 12.7755 178.32 12.36C178.083 12.272 177.84 12.2005 177.592 12.1458L177.345 12.0964C177.183 12.0667 177.007 12.0502 176.835 12.034L176.825 12.0332C176.52 12.0086 176.213 12.0086 175.908 12.0332L175.872 12.0367C175.799 12.0439 175.716 12.052 175.634 12.0661C173.349 12.2886 171.62 13.2663 170.602 14.914L170.446 15.1695L170.275 14.9249C169.465 13.7693 168.331 12.8796 167.016 12.3682C166.371 12.134 165.689 12.015 165.003 12.0167C162.787 12.0167 161.015 12.8873 160.005 14.4664L159.642 15.0348V13.8485C159.642 13.4593 159.487 13.086 159.212 12.8105C158.938 12.5351 158.565 12.3799 158.176 12.3792H155.385V27.5303C155.386 27.9184 155.541 28.2907 155.815 28.5654C156.089 28.8402 156.461 28.9954 156.849 28.9968H159.656V20.2528C159.655 19.518 159.828 18.7934 160.162 18.1392C160.497 17.4849 160.982 16.9197 161.578 16.4903C161.626 16.4452 161.678 16.4056 161.734 16.3722C161.942 16.231 162.163 16.1105 162.394 16.0125C162.764 15.8651 163.16 15.7887 163.558 15.7874C164.388 15.7888 165.183 16.1191 165.77 16.706C166.357 17.2927 166.687 18.0882 166.689 18.9181V27.5303C166.689 27.9194 166.844 28.2924 167.12 28.5673C167.396 28.8423 167.769 28.9968 168.158 28.9968H170.954V20.2528C170.948 20.1558 170.948 20.0586 170.954 19.9616C170.994 19.276 171.186 18.6078 171.52 18.007C171.853 17.4062 172.315 16.8879 172.877 16.4903C172.923 16.4446 172.974 16.4048 173.029 16.3722C173.237 16.231 173.458 16.1105 173.689 16.0125C174.06 15.8651 174.454 15.7887 174.853 15.7874C175.683 15.7888 176.48 16.1189 177.068 16.7055C177.655 17.2922 177.987 18.0877 177.99 18.9181V27.5303C177.99 27.9188 178.145 28.2913 178.418 28.5662C178.693 28.8412 179.066 28.996 179.454 28.9968H182.26ZM77.686 12.3737H75.5245H74.893V14.4307L74.566 14.156C72.822 12.6099 71.1965 11.9838 68.9555 11.9838C64.619 11.9838 61.09 15.8917 61.09 20.7004C61.089 21.7194 61.252 22.7321 61.5735 23.6992C61.7045 24.0945 61.8635 24.4799 62.0485 24.8526C62.1495 25.067 62.2615 25.2759 62.3835 25.4788L62.4385 25.575C62.587 25.8194 62.735 26.0336 62.889 26.2422C63.043 26.451 63.2295 26.6734 63.397 26.8603L63.449 26.9164C63.53 27.0038 63.599 27.0786 63.6715 27.1512C63.9495 27.4284 64.247 27.6853 64.5615 27.9202C64.769 28.0771 64.9855 28.222 65.2095 28.3541C65.4185 28.4777 65.641 28.5985 65.896 28.7221C66.507 29.0051 67.154 29.2029 67.8185 29.3099C68.06 29.3516 68.304 29.3781 68.549 29.3894H68.9555C70.993 29.3894 72.726 29.0434 74.566 27.349L74.893 27.0469V27.4972C74.8905 27.692 74.927 27.8852 74.9995 28.0658C75.0725 28.2465 75.1805 28.4109 75.317 28.5499C75.4535 28.6887 75.616 28.7992 75.7955 28.8749C75.9745 28.9507 76.1675 28.9901 76.362 28.9913H79.155V13.843C79.154 13.4535 78.9995 13.0802 78.724 12.8049C78.4485 12.5295 78.075 12.3745 77.686 12.3737ZM74.8845 22.23C74.517 23.3623 73.7575 24.3263 72.7425 24.9488C71.7275 25.5712 70.524 25.8111 69.348 25.6254C68.172 25.4397 67.101 24.8407 66.3275 23.9358C65.5535 23.0311 65.128 21.8799 65.127 20.6894V20.3544C65.1255 20.3278 65.1255 20.3013 65.127 20.2747C65.1325 20.1632 65.144 20.0522 65.163 19.9424C65.1705 19.8796 65.1815 19.8172 65.196 19.7557C65.202 19.7094 65.2115 19.6635 65.2235 19.6183C65.233 19.5609 65.246 19.5042 65.2615 19.448C65.2675 19.4134 65.277 19.3793 65.289 19.3464C65.5025 18.5717 65.8995 17.8597 66.4455 17.2704C66.992 16.681 67.672 16.2318 68.428 15.9604C68.5325 15.9246 68.637 15.8944 68.741 15.8642L69.06 15.7901H69.098C69.249 15.7596 69.401 15.7367 69.554 15.7214C69.612 15.7214 69.6695 15.7214 69.727 15.7049C69.7665 15.6937 69.818 15.6977 69.8665 15.7015C69.889 15.7033 69.911 15.7049 69.9305 15.7049C70.7345 15.6761 71.5335 15.8416 72.2595 16.187C72.986 16.5325 73.6185 17.048 74.1035 17.6899C74.5885 18.3316 74.912 19.0809 75.046 19.874C75.18 20.6671 75.121 21.4809 74.8735 22.2465L74.8845 22.23ZM148.781 12.3737H150.945C151.138 12.3737 151.329 12.4117 151.507 12.4856C151.685 12.5594 151.847 12.6676 151.984 12.8041C152.12 12.9405 152.228 13.1025 152.302 13.2807C152.376 13.459 152.414 13.65 152.414 13.843V28.9913H149.63C149.435 28.9906 149.241 28.9512 149.062 28.8757C148.882 28.8 148.719 28.6895 148.583 28.5507C148.446 28.4117 148.339 28.2471 148.266 28.0663C148.194 27.8855 148.158 27.6922 148.16 27.4972V27.0469L147.827 27.349C145.991 29.0434 144.258 29.3894 142.223 29.3894H141.814C141.568 29.378 141.323 29.3513 141.08 29.3099C140.416 29.2032 139.769 29.0054 139.158 28.7221C138.923 28.6111 138.694 28.4882 138.471 28.3541C138.246 28.2214 138.029 28.0765 137.82 27.9202C137.508 27.6831 137.213 27.4263 136.934 27.1512C136.846 27.0635 136.76 26.9728 136.658 26.8603C136.494 26.6734 136.301 26.451 136.15 26.2422C135.999 26.0336 135.852 25.8194 135.703 25.575L135.643 25.4788C135.521 25.2759 135.408 25.067 135.307 24.8526C135.12 24.4804 134.961 24.095 134.83 23.6992C134.508 22.7323 134.345 21.7194 134.349 20.7004C134.349 15.8917 137.881 11.9838 142.217 11.9838C144.455 11.9838 146.081 12.6099 147.825 14.156L148.154 14.4307V12.3737H148.781ZM146.003 24.9504C147.018 24.3276 147.778 23.3629 148.146 22.23V22.219C148.465 21.2157 148.465 20.1383 148.146 19.1349C147.8 18.1049 147.13 17.2143 146.236 16.5962C145.342 15.978 144.272 15.6654 143.186 15.7049C143.167 15.7049 143.146 15.7033 143.123 15.7015C143.076 15.6977 143.025 15.6937 142.984 15.7049C142.923 15.7214 142.862 15.7214 142.807 15.7214C142.656 15.7367 142.506 15.7596 142.357 15.7901H142.316L141.992 15.8642L141.952 15.8759C141.864 15.9023 141.773 15.9292 141.682 15.9604C140.926 16.2318 140.245 16.681 139.699 17.2704C139.153 17.8597 138.756 18.5717 138.542 19.3464C138.527 19.3782 138.519 19.4129 138.518 19.448C138.5 19.5034 138.487 19.5604 138.48 19.6183C138.465 19.6632 138.454 19.7091 138.447 19.7557C138.444 19.7745 138.44 19.7928 138.436 19.8107C138.427 19.856 138.419 19.8991 138.419 19.9424C138.4 20.0522 138.387 20.1632 138.383 20.2747C138.381 20.3011 138.381 20.3278 138.383 20.3544V20.6894C138.384 21.8805 138.81 23.0323 139.585 23.9376C140.359 24.8428 141.43 25.4421 142.607 25.6278C143.783 25.8135 144.988 25.5733 146.003 24.9504Z" fill="white"/>
</svg>
