<svg width="201" height="41" viewBox="0 0 201 41" fill="none" xmlns="http://www.w3.org/2000/svg">
<path d="M77.678 13.3923C75.1075 13.3923 73.403 14.4632 72.4855 16.4643L72.4195 13.7016H68.441V35.836H72.83V27.5C73.7975 29.1235 75.404 30.0184 77.678 30.0184C82.0195 30.0184 84.8035 26.7192 84.8035 21.6814C84.8035 16.6776 82.0195 13.3923 77.678 13.3923ZM76.6455 26.1656C74.268 26.1656 72.681 24.3128 72.681 21.6803C72.681 19.0478 74.255 17.2942 76.6455 17.2942C79.035 17.2942 80.379 18.9827 80.379 21.6803C80.379 24.379 79.019 26.1656 76.6455 26.1656ZM94.4525 13.3923C89.226 13.3923 86.1785 16.8376 86.1785 21.6952C86.1785 26.5539 89.2395 30.0174 94.4525 30.0174C99.6645 30.0174 102.71 26.5571 102.71 21.6952C102.71 16.8344 99.6805 13.3923 94.4525 13.3923ZM94.4525 26.1496C92.06 26.1496 90.523 24.428 90.523 21.6952C90.523 18.9646 92.078 17.275 94.4525 17.275C96.827 17.275 98.351 18.9667 98.351 21.6952C98.351 24.4248 96.845 26.1496 94.4525 26.1496ZM108.467 7.32938H104.077V30.0174H108.467V7.32938ZM114.292 7.32938H109.902V30.0174H114.292V7.32938ZM123.957 13.3923C118.73 13.3923 115.683 16.8376 115.683 21.6952C115.683 26.5539 118.745 30.0174 123.957 30.0174C129.169 30.0174 132.212 26.5571 132.212 21.6952C132.212 16.8344 129.182 13.3923 123.957 13.3923ZM123.957 26.1496C121.564 26.1496 120.023 24.428 120.023 21.6952C120.023 18.9646 121.58 17.275 123.957 17.275C126.334 17.275 127.856 18.9667 127.856 21.6952C127.856 24.4248 126.351 26.1496 123.957 26.1496ZM135.83 25.2728C134.543 25.2728 133.431 26.332 133.431 27.6376C133.431 28.9432 134.54 30.0142 135.831 30.0142C137.122 30.0142 138.23 28.9432 138.23 27.6376C138.23 26.332 137.122 25.2728 135.83 25.2728ZM142.135 7.18538C140.695 7.18538 139.447 8.33948 139.447 9.76883C139.447 11.1982 140.658 12.3683 142.135 12.3683C143.614 12.3683 144.855 11.1982 144.855 9.76883C144.855 8.33948 143.575 7.18538 142.135 7.18538ZM144.348 14.0099H139.958V30.0174H144.349L144.348 14.0099ZM154.19 13.3923C148.962 13.3923 145.916 16.8376 145.916 21.6952C145.916 26.5539 148.977 30.0174 154.19 30.0174C159.402 30.0174 162.445 26.5571 162.445 21.6952C162.445 16.8344 159.413 13.3923 154.19 13.3923ZM154.19 26.1496C151.799 26.1496 150.256 24.428 150.256 21.6952C150.256 18.9646 151.812 17.275 154.19 17.275C156.566 17.275 158.089 18.9667 158.089 21.6952C158.089 24.4248 156.582 26.1496 154.19 26.1496ZM62.8075 8.58588H58.492L60.732 12.3886L62.8075 8.58588ZM53.4885 4.78003L38.22 30.0078H46.397C47.4893 30.0078 48.5624 29.7336 49.5085 29.2184C50.5325 28.6595 51.308 27.8478 51.9105 26.8632C52.618 25.7112 53.305 24.5486 53.999 23.3902L55.7785 20.427L53.483 16.6115L52.4655 18.235C51.305 20.1582 50.2061 22.1283 49.005 24.027C48.4013 24.9763 47.6109 25.8787 46.4472 26.1102C46.2733 26.1432 46.092 26.1624 45.9117 26.1688C45.6728 26.1774 45.4317 26.172 45.1928 26.172L53.4885 12.1699L64.1335 30.0643H67.214V27.4339L67.1425 27.3166L53.4885 4.78003Z" fill="white"/>
</svg>
