<svg width="201" height="41" viewBox="0 0 201 41" fill="none" xmlns="http://www.w3.org/2000/svg">
<path d="M44.3401 4.78003V36.78H76.34V4.78003H44.3401ZM53.31 11.9581H60.1205C62.128 11.9581 63.6825 12.3529 64.7845 13.1426C65.887 13.9158 66.438 15.0343 66.438 16.4984C66.438 17.3374 66.2405 18.0695 65.8455 18.6947C65.451 19.3034 64.867 19.7888 64.0935 20.1507C65.163 20.4962 65.9775 21.0472 66.5365 21.804C67.1125 22.5443 67.4005 23.4491 67.4005 24.5185C67.4005 25.5713 67.1205 26.4762 66.5615 27.2329C66.0185 27.9897 65.237 28.5736 64.217 28.9849C63.197 29.3962 61.9715 29.6018 60.5405 29.6018H53.31V11.9581ZM56.9865 14.8204V19.2129H59.7755C60.7295 19.2129 61.4535 19.0156 61.947 18.6207C62.457 18.2095 62.712 17.6419 62.712 16.918C62.712 15.5197 61.733 14.8204 59.7755 14.8204H56.9865ZM56.9865 21.9768V26.7394H60.1945C61.297 26.7394 62.1445 26.5419 62.7365 26.147C63.329 25.7358 63.625 25.1518 63.625 24.3951C63.625 22.7829 62.498 21.9768 60.244 21.9768H56.9865ZM124.34 4.78003V36.78H156.34V4.78003H124.34ZM141.654 11.5877C142.625 11.5877 143.538 11.6948 144.393 11.9086C145.265 12.106 146.071 12.4022 146.811 12.797V16.3011C146.137 15.8405 145.405 15.495 144.615 15.2647C143.825 15.0179 142.995 14.8946 142.123 14.8946C140.922 14.8946 139.894 15.1247 139.038 15.5854C138.199 16.046 137.549 16.7124 137.089 17.5843C136.645 18.4562 136.423 19.5173 136.423 20.7676C136.423 22.0178 136.636 23.0872 137.064 23.9755C137.508 24.8474 138.142 25.5136 138.964 25.9742C139.803 26.4349 140.815 26.6653 141.999 26.6653C143.809 26.6653 145.479 26.1799 147.009 25.2093V28.6395C146.285 29.0508 145.446 29.3714 144.492 29.6018C143.538 29.8485 142.534 29.9719 141.481 29.9719C140.083 29.9719 138.824 29.7663 137.706 29.355C136.587 28.9273 135.641 28.3185 134.868 27.5289C134.095 26.7392 133.502 25.777 133.091 24.6418C132.68 23.4903 132.474 22.1988 132.474 20.7676C132.474 19.3692 132.688 18.1106 133.116 16.9919C133.544 15.8568 134.16 14.8863 134.967 14.0802C135.773 13.2741 136.735 12.6571 137.854 12.2293C138.989 11.8016 140.256 11.5877 141.654 11.5877ZM84.34 4.78003V36.78H116.34V4.78003H84.34ZM93.31 11.9581H100.12C102.127 11.9581 103.682 12.3529 104.784 13.1426C105.887 13.9158 106.438 15.0343 106.438 16.4984C106.438 17.3374 106.24 18.0695 105.845 18.6947C105.45 19.3034 104.866 19.7888 104.093 20.1507C105.163 20.4962 105.977 21.0472 106.536 21.804C107.112 22.5443 107.4 23.4491 107.4 24.5185C107.4 25.5713 107.12 26.4762 106.561 27.2329C106.018 27.9897 105.237 28.5736 104.217 28.9849C103.197 29.3962 101.971 29.6018 100.54 29.6018H93.31V11.9581ZM96.9865 14.8204V19.2129H99.775C100.729 19.2129 101.453 19.0156 101.946 18.6207C102.456 18.2095 102.711 17.6419 102.711 16.918C102.711 15.5197 101.733 14.8204 99.775 14.8204H96.9865ZM96.9865 21.9768V26.7394H100.194C101.297 26.7394 102.144 26.5419 102.736 26.147C103.328 25.7358 103.625 25.1518 103.625 24.3951C103.625 22.7829 102.498 21.9768 100.244 21.9768H96.9865Z" fill="white"/>
</svg>
