<svg width="200" height="40" viewBox="0 0 200 40" fill="none" xmlns="http://www.w3.org/2000/svg">
<path d="M48 20.4336V20.3694C48 13.9759 52.7335 8.73899 59.4686 8.73899C62.2316 8.64769 64.9361 9.54799 67.0932 11.277C67.3322 11.4637 67.5252 11.7026 67.6574 11.9756C67.7896 12.2485 67.8574 12.5482 67.8556 12.8514C67.8515 13.211 67.7481 13.5624 67.5568 13.8668C67.3654 14.1712 67.0936 14.4168 66.7714 14.5764C66.4492 14.736 66.0891 14.8034 65.731 14.7711C65.3729 14.7388 65.0307 14.6081 64.7422 14.3935C63.2801 13.0939 61.3931 12.3739 59.4368 12.3694C55.2115 12.3694 52.0982 15.9036 52.0982 20.3051V20.3694C52.0982 24.7709 55.1798 28.3373 59.4368 28.3373C61.4996 28.3712 63.4943 27.5989 64.9964 26.1847C65.3198 25.8956 65.7381 25.7356 66.1718 25.735C66.6565 25.7416 67.1196 25.9363 67.4634 26.278C67.8072 26.6197 68.0048 27.0815 68.0145 27.5661C68.0134 27.8331 67.9563 28.0969 67.8468 28.3404C67.7374 28.5839 67.578 28.8017 67.3791 28.9797C65.1943 31.0136 62.293 32.0995 59.3097 32C52.8288 32 48 26.8914 48 20.4336Z" fill="white"/>
<path d="M69.4453 26.7307V26.6665C69.4453 23.0037 72.2727 21.2047 76.371 21.2047C77.9034 21.1894 79.4278 21.4283 80.8821 21.9116V21.4938C80.8821 19.0842 79.4208 17.7991 76.7204 17.7991C75.4496 17.7824 74.1874 18.0115 73.0035 18.4737C72.8079 18.5346 72.6046 18.567 72.3998 18.5701C72.1878 18.5716 71.9776 18.5312 71.7812 18.4512C71.5849 18.3712 71.4063 18.2531 71.2557 18.1038C71.1051 17.9546 70.9856 17.777 70.9038 17.5813C70.8221 17.3857 70.7799 17.1758 70.7796 16.9638C70.7846 16.6324 70.8866 16.3098 71.0729 16.0357C71.2592 15.7616 71.5217 15.5481 71.828 15.4215C73.5465 14.7421 75.3809 14.4038 77.2287 14.4255C79.7385 14.4255 81.6128 15.1003 82.7883 16.3211C84.0273 17.5422 84.5991 19.3412 84.5991 21.558V29.9116C84.6021 30.158 84.5556 30.4026 84.4623 30.6307C84.369 30.8589 84.2309 31.066 84.0561 31.2397C83.8813 31.4135 83.6734 31.5504 83.4447 31.6423C83.216 31.7342 82.9712 31.7793 82.7247 31.7749C82.4936 31.7925 82.2613 31.7639 82.0414 31.6907C81.8215 31.6175 81.6184 31.5013 81.4439 31.3488C81.2694 31.1963 81.1271 31.0105 81.0251 30.8023C80.9232 30.5942 80.8638 30.3678 80.8504 30.1364V29.4938C80.19 30.2973 79.3538 30.9382 78.4064 31.3672C77.4589 31.7962 76.4256 32.0016 75.3861 31.9678C72.241 31.9678 69.4453 30.1364 69.4453 26.7307ZM80.9457 25.5099V24.3533C79.7274 23.8952 78.4349 23.6665 77.1334 23.6787C74.6554 23.6787 73.194 24.7387 73.194 26.5058V26.5701C73.194 28.2087 74.6237 29.1402 76.4663 29.1402C79.0078 29.1402 80.9457 27.6624 80.9457 25.5099Z" fill="white"/>
<path d="M88.1581 9.92777C88.1547 9.67552 88.2016 9.42507 88.2959 9.19107C88.3903 8.95712 88.5302 8.74422 88.7076 8.56482C88.885 8.38542 89.0963 8.24312 89.3292 8.14612C89.5621 8.04917 89.812 7.99947 90.0643 8.00002C90.3182 7.99887 90.5699 8.04792 90.8049 8.14427C91.0398 8.24062 91.2534 8.38242 91.4335 8.56152C91.6135 8.74062 91.7564 8.95347 91.854 9.18797C91.9516 9.42242 92.002 9.67382 92.0022 9.92777V29.8474C92.0029 30.1003 91.9538 30.3509 91.8576 30.5848C91.7613 30.8187 91.6199 31.0313 91.4413 31.2104C91.2628 31.3895 91.0506 31.5316 90.817 31.6286C90.5835 31.7255 90.333 31.7754 90.0801 31.7754C89.8272 31.7754 89.5768 31.7255 89.3432 31.6286C89.1096 31.5316 88.8975 31.3895 88.7189 31.2104C88.5404 31.0313 88.3989 30.8187 88.3027 30.5848C88.2065 30.3509 88.1573 30.1003 88.1581 29.8474V9.92777Z" fill="white"/>
<path d="M95.9737 9.92777C95.9703 9.67552 96.0171 9.42507 96.1117 9.19112C96.2057 8.95712 96.3457 8.74422 96.5232 8.56482C96.7007 8.38542 96.9117 8.24312 97.1447 8.14612C97.3777 8.04917 97.6277 7.99952 97.8797 8.00002C98.1337 7.99887 98.3852 8.04792 98.6202 8.14427C98.8552 8.24062 99.0692 8.38242 99.2492 8.56152C99.4292 8.74062 99.5722 8.95347 99.6697 9.18792C99.7672 9.42242 99.8177 9.67382 99.8177 9.92777V29.8474C99.8187 30.1003 99.7692 30.3509 99.6732 30.5848C99.5767 30.8187 99.4357 31.0313 99.2567 31.2104C99.0782 31.3895 98.8662 31.5316 98.6327 31.6286C98.3992 31.7255 98.1487 31.7754 97.8957 31.7754C97.6427 31.7754 97.3922 31.7255 97.1587 31.6286C96.9252 31.5316 96.7132 31.3895 96.5347 31.2104C96.3562 31.0313 96.2147 30.8187 96.1182 30.5848C96.022 30.3509 95.9729 30.1003 95.9737 29.8474V9.92777Z" fill="white"/>
<path d="M105.568 9.95986C105.571 9.74076 105.659 9.53121 105.813 9.37541C105.967 9.21961 106.175 9.12966 106.394 9.12451H114.909C117.641 9.12451 119.833 9.99201 121.167 11.3415C122.253 12.4602 122.857 13.9594 122.851 15.5182V15.5825C122.851 19.3414 120.087 21.4939 116.338 22.0081L122.66 30.2972C122.809 30.4547 122.899 30.659 122.914 30.8754C122.906 31.101 122.813 31.3153 122.654 31.4759C122.495 31.6365 122.282 31.7317 122.057 31.7429C121.907 31.7335 121.762 31.6876 121.635 31.6092C121.508 31.5307 121.401 31.4221 121.326 31.293L114.496 22.2972H107.22V30.9075C107.222 31.0168 107.201 31.1252 107.16 31.2265C107.119 31.3279 107.059 31.4201 106.982 31.4978C106.905 31.5755 106.814 31.6372 106.713 31.6793C106.612 31.7214 106.504 31.7431 106.394 31.7431C106.285 31.7431 106.177 31.7214 106.076 31.6793C105.975 31.6372 105.884 31.5755 105.807 31.4978C105.73 31.4201 105.669 31.3279 105.629 31.2265C105.588 31.1252 105.567 31.0168 105.568 30.9075V9.95986ZM114.718 20.787C118.435 20.787 121.199 18.8914 121.199 15.6467V15.5824C121.199 12.5622 118.848 10.6666 114.813 10.6666H107.22V20.787H114.718Z" fill="white"/>
<path d="M124.949 26.8594V26.7951C124.949 23.3895 127.84 21.4618 132.033 21.4618C133.847 21.4438 135.655 21.6818 137.402 22.1687V21.4618C137.402 18.1527 135.401 16.4498 132.065 16.4498C130.466 16.4541 128.889 16.828 127.459 17.5423C127.351 17.6001 127.231 17.633 127.109 17.6387C126.917 17.63 126.734 17.549 126.599 17.412C126.464 17.275 126.385 17.092 126.378 16.8995C126.38 16.7521 126.423 16.6082 126.501 16.4835C126.58 16.3587 126.691 16.2582 126.823 16.1928C128.489 15.3945 130.313 14.9775 132.16 14.9719C134.352 14.9719 136.1 15.5825 137.275 16.771C137.848 17.391 138.29 18.1204 138.574 18.9155C138.858 19.7106 138.978 20.5548 138.927 21.3976V30.9397C138.932 31.0431 138.917 31.1466 138.881 31.2438C138.845 31.341 138.79 31.4299 138.718 31.5051C138.647 31.5802 138.561 31.6401 138.466 31.681C138.371 31.7219 138.268 31.743 138.165 31.743C138.061 31.743 137.958 31.7219 137.863 31.681C137.768 31.6401 137.682 31.5802 137.611 31.5051C137.54 31.4299 137.484 31.341 137.448 31.2438C137.412 31.1466 137.397 31.0431 137.402 30.9397V28.8834C136.706 29.873 135.776 30.6752 134.696 31.2189C133.615 31.7626 132.417 32.031 131.207 32.0001C128.189 32.0001 124.949 30.2651 124.949 26.8594ZM137.434 25.4779V23.6144C135.642 23.1292 133.794 22.8807 131.938 22.8754C128.507 22.8754 126.601 24.4177 126.601 26.6987V26.763C126.601 29.1404 128.825 30.5221 131.303 30.5221C134.607 30.5221 137.434 28.4659 137.434 25.4779Z" fill="white"/>
<path d="M143.28 9.60653C143.277 9.48003 143.3 9.35423 143.346 9.23658C143.393 9.11898 143.463 9.01198 143.552 8.92198C143.641 8.83198 143.747 8.76088 143.864 8.71283C143.981 8.66483 144.107 8.64088 144.233 8.64248C144.362 8.64028 144.489 8.66353 144.608 8.71098C144.727 8.75838 144.836 8.82898 144.927 8.91863C145.019 9.00833 145.092 9.11533 145.142 9.23343C145.192 9.35148 145.218 9.47833 145.218 9.60653V10.1526C145.218 10.2808 145.192 10.4076 145.142 10.5257C145.092 10.6437 145.019 10.7507 144.927 10.8404C144.836 10.93 144.727 11.0006 144.608 11.048C144.489 11.0954 144.362 11.1187 144.233 11.1165C144.107 11.1181 143.981 11.0941 143.864 11.0461C143.747 10.9981 143.641 10.927 143.552 10.837C143.463 10.7471 143.393 10.6401 143.346 10.5225C143.3 10.4049 143.277 10.2791 143.28 10.1526V9.60653ZM143.471 15.9037C143.468 15.7994 143.485 15.6955 143.523 15.5982C143.561 15.5009 143.617 15.4121 143.69 15.3372C143.763 15.2622 143.849 15.2026 143.946 15.162C144.042 15.1213 144.145 15.1003 144.249 15.1003C144.354 15.1003 144.457 15.1213 144.553 15.162C144.649 15.2026 144.736 15.2622 144.809 15.3372C144.881 15.4121 144.938 15.5009 144.976 15.5982C145.013 15.6955 145.031 15.7994 145.028 15.9037V30.9396C145.035 31.0436 145.021 31.1482 144.986 31.2465C144.951 31.3448 144.896 31.4346 144.824 31.5103C144.753 31.586 144.666 31.6458 144.569 31.6858C144.473 31.7259 144.369 31.7453 144.265 31.7428C144.159 31.746 144.054 31.7273 143.955 31.688C143.857 31.6486 143.768 31.5894 143.693 31.514C143.619 31.4387 143.561 31.3488 143.522 31.25C143.484 31.1511 143.467 31.0455 143.471 30.9396V15.9037Z" fill="white"/>
<path d="M150.111 8.83548C150.106 8.73203 150.122 8.62863 150.158 8.53153C150.193 8.43443 150.249 8.34568 150.32 8.27058C150.391 8.19548 150.477 8.13563 150.572 8.09463C150.667 8.05368 150.77 8.03243 150.873 8.03223C150.979 8.03178 151.083 8.05233 151.18 8.09263C151.277 8.13298 151.365 8.19228 151.439 8.26708C151.513 8.34188 151.571 8.43063 151.611 8.52828C151.65 8.62588 151.669 8.73028 151.668 8.83548V30.9397C151.675 31.0437 151.661 31.1482 151.626 31.2465C151.591 31.3448 151.536 31.4347 151.464 31.5104C151.393 31.586 151.306 31.6458 151.209 31.6859C151.113 31.7259 151.009 31.7453 150.905 31.7429C150.799 31.7461 150.694 31.7274 150.595 31.688C150.497 31.6486 150.408 31.5894 150.333 31.5141C150.259 31.4387 150.2 31.3488 150.162 31.25C150.124 31.1512 150.106 31.0455 150.111 30.9397V8.83548Z" fill="white"/>
</svg>
