<svg width="200" height="41" viewBox="0 0 200 41" fill="none" xmlns="http://www.w3.org/2000/svg">
<path d="M1.97534 22.9837V22.9194C1.97534 16.5259 6.70888 11.289 13.4439 11.289C16.207 11.1977 18.9114 12.098 21.0685 13.8271C21.3075 14.0137 21.5006 14.2527 21.6327 14.5256C21.7649 14.7986 21.8327 15.0982 21.8309 15.4015C21.8268 15.761 21.7234 16.1124 21.5321 16.4169C21.3408 16.7213 21.069 16.9669 20.7468 17.1265C20.4246 17.2861 20.0645 17.3535 19.7064 17.3212C19.3483 17.2889 19.0061 17.1582 18.7176 16.9435C17.2554 15.6439 15.3684 14.924 13.4122 14.9194C9.18688 14.9194 6.07353 18.4537 6.07353 22.8552V22.9194C6.07353 27.321 9.15518 30.8873 13.4122 30.8873C15.475 30.9212 17.4696 30.149 18.9718 28.7347C19.2951 28.4457 19.7135 28.2856 20.1472 28.285C20.6318 28.2917 21.095 28.4864 21.4388 28.828C21.7826 29.1697 21.9801 29.6316 21.9898 30.1162C21.9887 30.3832 21.9316 30.6469 21.8222 30.8904C21.7127 31.1339 21.5534 31.3517 21.3544 31.5298C19.1696 33.5636 16.2683 34.6495 13.2851 34.55C6.80418 34.55 1.97534 29.4414 1.97534 22.9837Z" fill="white"/>
<path d="M23.4207 29.2807V29.2165C23.4207 25.5538 26.2481 23.7547 30.3463 23.7547C31.8788 23.7395 33.4032 23.9783 34.8575 24.4616V24.0438C34.8575 21.6343 33.3961 20.3492 30.6958 20.3492C29.4249 20.3325 28.1628 20.5615 26.9788 21.0238C26.7833 21.0846 26.58 21.1171 26.3752 21.1201C26.1632 21.1216 25.9529 21.0812 25.7566 21.0012C25.5602 20.9212 25.3816 20.8032 25.2311 20.6539C25.0805 20.5046 24.9609 20.327 24.8792 20.1314C24.7975 19.9357 24.7553 19.7259 24.755 19.5138C24.76 19.1825 24.862 18.8598 25.0483 18.5857C25.2346 18.3117 25.4971 18.0982 25.8033 17.9716C27.5219 17.2922 29.3563 16.9539 31.2041 16.9756C33.7138 16.9756 35.5882 17.6503 36.7636 18.8712C38.0026 20.0922 38.5745 21.8913 38.5745 24.1081V32.4616C38.5774 32.7081 38.5309 32.9526 38.4376 33.1808C38.3444 33.4089 38.2062 33.616 38.0314 33.7898C37.8566 33.9635 37.6487 34.1004 37.42 34.1924C37.1913 34.2843 36.9465 34.3294 36.7001 34.3249C36.469 34.3425 36.2367 34.3139 36.0168 34.2408C35.7969 34.1676 35.5937 34.0514 35.4192 33.8988C35.2448 33.7463 35.1024 33.5605 35.0005 33.3524C34.8986 33.1442 34.8392 32.9179 34.8257 32.6865V32.0438C34.1654 32.8473 33.3292 33.4883 32.3817 33.9172C31.4343 34.3462 30.4009 34.5517 29.3614 34.5178C26.2163 34.5178 23.4207 32.6865 23.4207 29.2807ZM34.921 28.0599V26.9033C33.7027 26.4453 32.4102 26.2166 31.1088 26.2287C28.6308 26.2287 27.1694 27.2888 27.1694 29.0559V29.1201C27.1694 30.7588 28.599 31.6903 30.4416 31.6903C32.9831 31.6903 34.921 30.2125 34.921 28.0599Z" fill="white"/>
<path d="M42.1335 12.4778C42.1301 12.2256 42.177 11.9751 42.2713 11.7411C42.3656 11.5072 42.5056 11.2943 42.6829 11.1149C42.8603 10.9355 43.0716 10.7932 43.3045 10.6962C43.5375 10.5992 43.7873 10.5495 44.0396 10.5501C44.2936 10.5489 44.5452 10.598 44.7802 10.6943C45.0152 10.7907 45.2288 10.9325 45.4088 11.1116C45.5889 11.2907 45.7318 11.5035 45.8294 11.738C45.927 11.9725 45.9773 12.2239 45.9775 12.4778V32.3975C45.9783 32.6504 45.9292 32.901 45.8329 33.1348C45.7367 33.3687 45.5952 33.5813 45.4167 33.7604C45.2381 33.9395 45.026 34.0816 44.7924 34.1786C44.5588 34.2756 44.3084 34.3255 44.0555 34.3255C43.8026 34.3255 43.5522 34.2756 43.3186 34.1786C43.085 34.0816 42.8728 33.9395 42.6943 33.7604C42.5157 33.5813 42.3743 33.3687 42.278 33.1348C42.1818 32.901 42.1327 32.6504 42.1335 32.3975V12.4778Z" fill="white"/>
<path d="M49.949 12.4778C49.9457 12.2256 49.9925 11.9751 50.087 11.7412C50.181 11.5072 50.321 11.2943 50.4985 11.1149C50.676 10.9355 50.887 10.7932 51.12 10.6962C51.353 10.5992 51.603 10.5496 51.855 10.5501C52.109 10.5489 52.3605 10.598 52.5955 10.6943C52.8305 10.7907 53.0445 10.9325 53.2245 11.1116C53.4045 11.2907 53.5475 11.5035 53.645 11.738C53.7425 11.9725 53.793 12.2239 53.793 12.4778V32.3975C53.794 32.6504 53.7445 32.901 53.6485 33.1348C53.552 33.3687 53.411 33.5813 53.232 33.7604C53.0535 33.9395 52.8415 34.0816 52.608 34.1786C52.3745 34.2756 52.124 34.3255 51.871 34.3255C51.618 34.3255 51.3675 34.2756 51.134 34.1786C50.9005 34.0816 50.6885 33.9395 50.51 33.7604C50.3315 33.5813 50.19 33.3687 50.0935 33.1348C49.9974 32.901 49.9482 32.6504 49.949 32.3975V12.4778Z" fill="white"/>
<path d="M59.5435 12.5099C59.5465 12.2908 59.634 12.0813 59.788 11.9255C59.942 11.7697 60.1505 11.6797 60.3695 11.6746H68.884C71.616 11.6746 73.808 12.5421 75.1425 13.8916C76.228 15.0103 76.832 16.5095 76.826 18.0682V18.1325C76.826 21.8914 74.062 24.044 70.3135 24.5581L76.6355 32.8472C76.7845 33.0047 76.8745 33.2091 76.8895 33.4254C76.881 33.6511 76.788 33.8654 76.6295 34.0259C76.4705 34.1865 76.2575 34.2818 76.032 34.2929C75.8825 34.2836 75.7375 34.2377 75.6105 34.1592C75.483 34.0808 75.3765 33.9722 75.301 33.843L68.471 24.8472H61.1955V33.4575C61.197 33.5668 61.1765 33.6753 61.1355 33.7766C61.0945 33.8779 61.034 33.9701 60.957 34.0478C60.8805 34.1256 60.789 34.1873 60.688 34.2294C60.587 34.2715 60.479 34.2932 60.3695 34.2932C60.2605 34.2932 60.152 34.2715 60.0515 34.2294C59.9505 34.1873 59.859 34.1256 59.782 34.0478C59.7055 33.9701 59.6445 33.8779 59.604 33.7766C59.563 33.6753 59.5425 33.5668 59.5435 33.4575V12.5099ZM68.693 23.3371C72.41 23.3371 75.174 21.4415 75.174 18.1967V18.1325C75.174 15.1122 72.823 13.2166 68.7885 13.2166H61.1955V23.3371H68.693Z" fill="white"/>
<path d="M78.9241 29.4094V29.3451C78.9241 25.9396 81.8151 24.0119 86.0086 24.0119C87.8226 23.9939 89.6301 24.2319 91.3776 24.7187V24.0119C91.3776 20.7027 89.3761 18.9998 86.0406 18.9998C84.4411 19.0042 82.8646 19.3781 81.4341 20.0924C81.3261 20.1501 81.2066 20.183 81.0846 20.1887C80.8921 20.18 80.7096 20.0991 80.5746 19.9621C80.4391 19.8251 80.3601 19.6421 80.3536 19.4495C80.3556 19.3022 80.3981 19.1582 80.4766 19.0335C80.5551 18.9088 80.6666 18.8082 80.7986 18.7428C82.4646 17.9446 84.2881 17.5276 86.1356 17.522C88.3276 17.522 90.0751 18.1325 91.2506 19.321C91.8236 19.941 92.2651 20.6705 92.5491 21.4655C92.8331 22.2606 92.9531 23.1049 92.9026 23.9476V33.4897C92.9076 33.5932 92.8921 33.6967 92.8561 33.7939C92.8206 33.8911 92.7651 33.98 92.6936 34.0551C92.6226 34.1303 92.5366 34.1901 92.4411 34.231C92.3461 34.2719 92.2436 34.293 92.1401 34.293C92.0366 34.293 91.9336 34.2719 91.8386 34.231C91.7436 34.1901 91.6576 34.1303 91.5861 34.0551C91.5151 33.98 91.4596 33.8911 91.4236 33.7939C91.3876 33.6967 91.3721 33.5932 91.3776 33.4897V31.4335C90.6816 32.423 89.7516 33.2253 88.6711 33.769C87.5901 34.3127 86.3921 34.581 85.1826 34.5501C82.1646 34.5501 78.9241 32.8151 78.9241 29.4094ZM91.4091 28.0279V26.1645C89.6176 25.6792 87.7696 25.4308 85.9131 25.4255C82.4821 25.4255 80.5761 26.9677 80.5761 29.2488V29.313C80.5761 31.6905 82.8001 33.0721 85.2781 33.0721C88.5821 33.0721 91.4091 31.0159 91.4091 28.0279Z" fill="white"/>
<path d="M97.2555 12.1566C97.2525 12.0301 97.275 11.9043 97.3215 11.7866C97.3685 11.669 97.4385 11.562 97.527 11.472C97.616 11.382 97.7225 11.3109 97.8395 11.2629C97.9565 11.2149 98.082 11.1909 98.2085 11.1925C98.337 11.1903 98.464 11.2136 98.5835 11.261C98.7025 11.3084 98.811 11.379 98.9025 11.4687C98.994 11.5584 99.067 11.6654 99.117 11.7835C99.167 11.9015 99.193 12.0284 99.1935 12.1566V12.7027C99.193 12.8308 99.167 12.9577 99.117 13.0757C99.067 13.1938 98.994 13.3008 98.9025 13.3904C98.811 13.4801 98.7025 13.5507 98.583 13.5981C98.464 13.6455 98.337 13.6687 98.2085 13.6665C98.082 13.6681 97.9565 13.6442 97.8395 13.5962C97.7225 13.5482 97.616 13.4771 97.5275 13.3871C97.4385 13.2971 97.3685 13.1901 97.3215 13.0725C97.275 12.9549 97.2525 12.8291 97.2555 12.7027V12.1566ZM97.446 18.4537C97.443 18.3494 97.4605 18.2455 97.498 18.1482C97.536 18.0509 97.5925 17.9621 97.665 17.8872C97.738 17.8123 97.8245 17.7527 97.921 17.712C98.017 17.6713 98.12 17.6504 98.2245 17.6504C98.329 17.6504 98.432 17.6713 98.528 17.712C98.6245 17.7527 98.711 17.8123 98.784 17.8872C98.8565 17.9621 98.913 18.0509 98.951 18.1482C98.9885 18.2455 99.006 18.3494 99.003 18.4537V33.4896C99.0105 33.5937 98.9965 33.6982 98.9615 33.7965C98.9265 33.8948 98.8715 33.9847 98.7995 34.0603C98.728 34.136 98.641 34.1958 98.5445 34.2359C98.4485 34.2759 98.3445 34.2953 98.2405 34.2929C98.1345 34.2961 98.029 34.2774 97.9305 34.238C97.832 34.1986 97.743 34.1394 97.6685 34.0641C97.594 33.9887 97.536 33.8988 97.4975 33.8C97.4595 33.7012 97.442 33.5955 97.446 33.4896V18.4537Z" fill="white"/>
<path d="M104.086 11.3855C104.081 11.2821 104.097 11.1787 104.133 11.0816C104.168 10.9845 104.224 10.8957 104.295 10.8206C104.366 10.7455 104.452 10.6857 104.547 10.6447C104.642 10.6037 104.745 10.5825 104.848 10.5823C104.954 10.5818 105.058 10.6024 105.155 10.6427C105.252 10.683 105.34 10.7423 105.414 10.8171C105.488 10.8919 105.546 10.9807 105.586 11.0783C105.625 11.1759 105.644 11.2803 105.643 11.3855V33.4897C105.65 33.5937 105.636 33.6983 105.601 33.7966C105.566 33.8949 105.511 33.9847 105.439 34.0604C105.368 34.1361 105.281 34.1959 105.184 34.2359C105.088 34.276 104.984 34.2954 104.88 34.293C104.774 34.2961 104.669 34.2774 104.57 34.2381C104.472 34.1987 104.383 34.1395 104.308 34.0641C104.234 33.9888 104.175 33.8989 104.137 33.8001C104.099 33.7012 104.081 33.5956 104.086 33.4897V11.3855Z" fill="white"/>
</svg>
