<svg width="50" height="51" viewBox="0 0 50 51" fill="none" xmlns="http://www.w3.org/2000/svg">
<rect x="0.5" y="0.610107" width="49" height="49" rx="7.5" fill="url(#paint0_linear_2_661)"/>
<rect x="0.5" y="0.610107" width="49" height="49" rx="7.5" stroke="#364152"/>
<path d="M18.5663 32.5485C19.1746 31.1153 20.5949 30.1101 22.25 30.1101H28.25C29.9051 30.1101 31.3254 31.1153 31.9337 32.5485M29.25 22.6101C29.25 24.8192 27.4591 26.6101 25.25 26.6101C23.0409 26.6101 21.25 24.8192 21.25 22.6101C21.25 20.401 23.0409 18.6101 25.25 18.6101C27.4591 18.6101 29.25 20.401 29.25 22.6101ZM35.25 25.1101C35.25 30.6329 30.7728 35.1101 25.25 35.1101C19.7271 35.1101 15.25 30.6329 15.25 25.1101C15.25 19.5873 19.7271 15.1101 25.25 15.1101C30.7728 15.1101 35.25 19.5873 35.25 25.1101Z" stroke="white" stroke-width="2" stroke-linecap="round" stroke-linejoin="round"/>
<defs>
<linearGradient id="paint0_linear_2_661" x1="25" y1="0.110107" x2="25" y2="50.1101" gradientUnits="userSpaceOnUse">
<stop stop-color="#364152"/>
<stop offset="1" stop-color="#202939"/>
</linearGradient>
</defs>
</svg>
