<svg width="32" height="32" viewBox="0 0 32 32" fill="none" xmlns="http://www.w3.org/2000/svg">
<path d="M25.2558 8.35961C23.5038 7.55749 21.6542 6.98843 19.7544 6.66699C19.4944 7.13175 19.2592 7.60994 19.0496 8.09953C17.0258 7.79457 14.9678 7.79457 12.944 8.09953C12.7344 7.60998 12.4991 7.13181 12.2393 6.66699C10.3381 6.99115 8.48731 7.56155 6.73352 8.36381C3.25179 13.5151 2.30795 18.5384 2.77987 23.4904C4.81885 24.997 7.10107 26.1427 9.52728 26.8778C10.0736 26.143 10.557 25.3635 10.9724 24.5475C10.1834 24.2528 9.42192 23.8894 8.69671 23.4611C8.88757 23.3227 9.07424 23.18 9.25461 23.0416C11.3648 24.034 13.668 24.5486 16 24.5486C18.3318 24.5486 20.635 24.034 22.7453 23.0416C22.9277 23.1906 23.1144 23.3331 23.3032 23.4611C22.5765 23.89 21.8137 24.2543 21.0233 24.5496C21.4381 25.3652 21.9216 26.144 22.4684 26.8778C24.8968 26.1456 27.1806 25.0004 29.22 23.4926C29.7737 17.7498 28.2741 12.7726 25.2558 8.35961ZM11.5702 20.445C10.2551 20.445 9.16863 19.2515 9.16863 17.7834C9.16863 16.3151 10.2173 15.1112 11.566 15.1112C12.9146 15.1112 13.9928 16.3151 13.9697 17.7834C13.9465 19.2515 12.9104 20.445 11.5702 20.445ZM20.4297 20.445C19.1125 20.445 18.0302 19.2515 18.0302 17.7834C18.0302 16.3151 19.0789 15.1112 20.4297 15.1112C21.7805 15.1112 22.8501 16.3151 22.827 17.7834C22.804 19.2515 21.77 20.445 20.4297 20.445Z" fill="white"/>
</svg>
