<svg width="200" height="40" viewBox="0 0 200 40" fill="none" xmlns="http://www.w3.org/2000/svg">
<path d="M37.3522 10.0132L27.9261 16.0264L37.3522 22.0396L27.9261 28.0528L18.5 22.0071L27.9261 15.9939L18.5 10.0132L27.9261 4L37.3522 10.0132ZM27.8773 29.9868L37.3035 23.9736L46.7295 29.9868L37.3035 36L27.8773 29.9868ZM37.3522 22.0071L46.7784 15.9939L37.3522 10.0132L46.7295 4L56.1555 10.0132L46.7295 16.0264L56.1555 22.0396L46.7295 28.0528L37.3522 22.0071Z" fill="white"/>
<path d="M63.5505 10.0132H71.1725C76.032 10.0132 80.046 12.8248 80.046 19.2443V20.5932C80.046 27.0614 76.292 29.9705 71.3185 29.9705H63.5505V10.0132ZM67.8085 13.6374V26.3301H71.075C73.838 26.3301 75.6905 24.5261 75.6905 20.5119V19.4555C75.6905 15.4413 73.74 13.6374 70.9285 13.6374H67.8085ZM82.305 13.8324H85.718L86.2705 17.5866C86.9205 15.035 88.578 13.6699 91.585 13.6699H92.641V17.9766H90.886C87.4245 17.9766 86.5795 19.1793 86.5795 22.5922V30.0193H82.37V13.8324H82.305ZM93.4865 22.2509V21.7958C93.4865 16.3839 96.948 13.4261 101.661 13.4261C106.471 13.4261 109.835 16.3839 109.835 21.7958V22.2509C109.835 27.5653 106.569 30.4256 101.661 30.4256C96.444 30.3768 93.4865 27.5815 93.4865 22.2509ZM105.529 22.2021V21.7958C105.529 18.7892 104.017 16.9853 101.612 16.9853C99.2555 16.9853 97.6955 18.643 97.6955 21.7958V22.2021C97.6955 25.1112 99.207 26.7689 101.612 26.7689C104.017 26.7202 105.529 25.1112 105.529 22.2021ZM112.046 13.8324H115.556L115.962 16.8878C116.808 14.84 118.612 13.4261 121.277 13.4261C125.389 13.4261 128.103 16.3839 128.103 21.8608V22.3159C128.103 27.6303 125.096 30.4418 121.277 30.4418C118.725 30.4418 116.97 29.288 116.109 27.4352V35.6099H111.997L112.046 13.8324ZM123.828 22.2021V21.8446C123.828 18.6267 122.171 17.034 119.96 17.034C117.604 17.034 116.044 18.838 116.044 21.8446V22.1534C116.044 25.0137 117.555 26.8177 119.912 26.8177C122.333 26.7689 123.828 25.225 123.828 22.2021ZM134.327 27.0289L133.97 29.9868H130.362V8.42053H134.473V16.6927C135.383 14.58 137.187 13.4261 139.739 13.4261C143.607 13.4748 146.467 16.1402 146.467 21.5033V22.0071C146.467 27.3702 143.753 30.4418 139.642 30.4418C136.927 30.3768 135.172 29.1254 134.327 27.0289ZM142.144 22.0071V21.6008C142.144 18.643 140.535 16.9853 138.276 16.9853C135.969 16.9853 134.36 18.838 134.36 21.6496V22.0071C134.36 25.0137 135.92 26.7689 138.228 26.7689C140.698 26.7689 142.144 25.225 142.144 22.0071ZM148.271 22.2509V21.7958C148.271 16.3839 151.733 13.4261 156.446 13.4261C161.257 13.4261 164.621 16.3839 164.621 21.7958V22.2509C164.621 27.5653 161.305 30.4256 156.446 30.4256C151.229 30.3768 148.271 27.5815 148.271 22.2509ZM160.346 22.2021V21.7958C160.346 18.7892 158.835 16.9853 156.43 16.9853C154.073 16.9853 152.513 18.643 152.513 21.7958V22.2021C152.513 25.1112 154.024 26.7689 156.43 26.7689C158.851 26.7202 160.346 25.1112 160.346 22.2021ZM170.13 21.6008L164.458 13.8324H169.317L172.584 18.6917L175.9 13.8324H180.71L174.957 21.552L181.019 29.9868H176.257L172.552 24.6237L168.944 29.9868H163.971L170.13 21.6008Z" fill="white"/>
</svg>
