<svg width="201" height="41" viewBox="0 0 201 41" fill="none" xmlns="http://www.w3.org/2000/svg">
<path fill-rule="evenodd" clip-rule="evenodd" d="M138.415 12.6826C138.413 12.4176 138.465 12.1549 138.567 11.9107C138.67 11.6665 138.822 11.446 139.014 11.2629C139.199 11.0707 139.422 10.9184 139.669 10.8156C139.915 10.7128 140.18 10.6616 140.448 10.6652C140.717 10.6608 140.984 10.7116 141.233 10.8144C141.482 10.9172 141.707 11.0698 141.895 11.2629C142.293 11.6531 142.493 12.13 142.493 12.6964C142.493 13.2628 142.293 13.7453 141.895 14.1438C141.711 14.3375 141.488 14.4908 141.241 14.5939C140.994 14.6969 140.729 14.7475 140.461 14.7424C140.192 14.7469 139.925 14.6961 139.676 14.5931C139.427 14.4901 139.202 14.3372 139.014 14.1438C138.82 13.9541 138.666 13.7266 138.563 13.4752C138.46 13.2239 138.41 12.9541 138.415 12.6826ZM142.18 32.8549V17.6094H138.893V32.8549H142.18Z" fill="white"/>
<path d="M132.585 17.6251H135.888V32.8706H132.585V31.2748C131.134 32.6308 129.575 33.3088 127.905 33.3088C125.797 33.3088 124.055 32.5468 122.677 31.0239C121.31 29.4686 120.627 27.5277 120.627 25.2013C120.627 22.9154 121.31 21.0115 122.677 19.4876C124.044 17.9646 125.756 17.2026 127.811 17.2026C129.585 17.2026 131.177 17.9332 132.585 19.3935V17.6251ZM123.992 25.2013C123.992 26.6616 124.383 27.8515 125.165 28.7694C125.969 29.6983 127.217 30.3191 128.437 30.3191C129.741 30.3191 130.796 29.714 131.599 28.8164C132.402 27.8875 132.804 26.7086 132.804 25.2788C132.804 23.849 132.403 22.6701 131.599 21.7421C130.796 20.8334 129.752 20.2228 128.468 20.2228C127.258 20.2228 126.011 20.839 125.197 21.7578C124.394 22.6857 123.992 23.8333 123.992 25.2013ZM110.733 17.6251H114.098V18.9876C114.746 18.3096 115.32 17.8447 115.821 17.5947C116.332 17.3336 116.937 17.2036 117.636 17.2036C118.565 17.2036 119.535 17.5061 120.547 18.1113L118.935 21.3353C118.267 20.8556 117.616 20.6158 116.979 20.6158C115.059 20.6158 114.098 22.0659 114.098 24.967V32.8716H110.733V17.6251ZM145.001 17.6178H148.303V19.0264C149.535 17.805 150.922 17.1943 152.466 17.1943C154.24 17.1943 155.623 17.7534 156.615 18.8695C157.47 19.8197 157.898 21.3694 157.898 23.5187V32.8633H154.36V24.348C154.36 22.8453 154.152 21.8066 153.735 21.2329C153.327 20.649 152.586 20.3565 151.512 20.3565C150.343 20.3565 149.514 20.7431 149.023 21.5151C148.543 22.2762 148.303 23.6073 148.303 25.5066V32.8633H145.001V17.6178ZM108.479 20.4433H98.727V23.7143H104.519C104.352 25.4153 103.553 26.8765 102.123 28.0978C100.693 29.3081 99.0815 29.9132 97.286 29.9132C95.1785 29.9132 93.222 29.1042 91.4165 27.4872C89.486 25.7437 88.521 23.527 88.521 20.8344C88.521 18.2257 89.388 16.056 91.1195 14.3227C92.852 12.5599 94.9955 11.678 97.553 11.678C99.7665 11.678 101.719 12.475 103.41 14.0691L105.889 11.5886C104.865 10.6421 103.829 9.9097 102.781 9.39315C101.142 8.6201 99.3785 8.2345 97.49 8.2345C93.9735 8.2345 90.9895 9.4614 88.5365 11.9123C86.0845 14.3541 84.859 17.3281 84.859 20.8344C84.859 24.2678 86.0635 27.2104 88.475 29.6623C90.8845 32.1041 93.781 33.3245 97.1615 33.3245C100.626 33.3245 103.481 32.0626 105.723 29.5378C106.715 28.4105 107.419 27.2003 107.836 25.9061C108.265 24.5076 108.479 22.9007 108.479 21.0853V20.4433Z" fill="white"/>
<path d="M55.638 5.46709C56.9075 4.97402 58.315 4.97402 59.5845 5.46709C61.0105 6.02148 62.417 6.66628 63.799 7.40243C64.086 7.55553 64.0415 7.98078 63.7345 8.08778C56.1775 10.7325 50.758 17.9258 50.758 26.3857C50.758 29.0203 51.284 31.533 52.237 33.8235C52.3715 34.1464 52.033 34.4766 51.722 34.3143C49.4626 33.1364 47.324 31.7399 45.3369 30.1447C44.2753 29.2921 43.5713 28.0728 43.3638 26.727C43.0608 24.7592 42.9091 22.771 42.9099 20.7799C42.9099 18.757 43.0649 16.7709 43.3638 14.8328C43.5716 13.4869 44.2758 12.2676 45.3378 11.4151C46.8902 10.1687 48.5358 9.04313 50.2601 8.04813C51.984 7.05168 53.782 6.18883 55.638 5.46709Z" fill="white"/>
<path d="M69.8855 11.4162C69.7085 11.2738 69.53 11.133 69.3505 10.9937C69.162 10.8461 68.9445 10.7398 68.7125 10.6818C68.48 10.6238 68.2385 10.6153 68.0025 10.657C59.7925 12.156 53.569 19.3457 53.569 27.9882C53.569 30.6744 54.1695 33.2204 55.245 35.4989C55.411 35.8512 55.719 36.1151 56.087 36.2442C57.238 36.5795 58.467 36.526 59.584 36.092C61.4135 35.3817 63.2105 34.5238 64.962 33.5119C66.687 32.5169 68.3325 31.3913 69.8855 30.1449C70.947 29.2925 71.6505 28.0735 71.8585 26.7281C72.1615 24.7602 72.313 22.7721 72.3125 20.781C72.313 18.79 72.1615 16.8018 71.8585 14.8339C71.651 13.4882 70.947 12.2689 69.8855 11.4162Z" fill="white"/>
</svg>
