<svg width="201" height="41" viewBox="0 0 201 41" fill="none" xmlns="http://www.w3.org/2000/svg">
<path d="M47.5623 17.9926C46.2791 16.6423 44.5121 15.8567 42.6498 15.8087C40.7876 15.7607 38.9824 16.4542 37.6313 17.7366L35.8261 19.4668C35.6815 19.6017 35.5064 19.6996 35.3158 19.7523C35.1252 19.8049 34.9248 19.8107 34.7314 19.7692C34.5762 19.734 34.4295 19.6686 34.2995 19.5767C34.1696 19.4848 34.0591 19.3681 33.9742 19.2335C33.8894 19.0989 33.8319 18.9488 33.8051 18.7919C33.7782 18.6351 33.7825 18.4745 33.8178 18.3193C33.8619 18.1273 33.9568 17.9485 34.0892 17.8006L29.1392 22.4903C29.7067 23.3428 30.4537 24.0608 31.328 24.5941C32.2023 25.1273 33.1827 25.4629 34.2004 25.5773C35.218 25.6917 36.2484 25.5821 37.2193 25.2562C38.1901 24.9303 39.078 24.3961 39.8205 23.6908L41.6258 21.9606C41.7692 21.824 41.9442 21.7249 42.1352 21.6721C42.3261 21.6194 42.5272 21.6146 42.7204 21.6583C42.9152 21.6987 43.0967 21.7876 43.2479 21.9168C43.3991 22.0461 43.5153 22.2115 43.5855 22.3976C43.6746 22.6199 43.6947 22.8638 43.6431 23.0976C43.5915 23.3315 43.4707 23.5443 43.2964 23.7085L48.3149 18.9438C48.0942 18.6062 47.8404 18.2884 47.5623 17.9926Z" fill="white" fill-opacity="0.5"/>
<path d="M49.8244 17.5094L48.3149 18.9439C49.2335 20.3199 49.636 21.9765 49.451 23.6207C49.266 25.2648 48.5056 26.7906 47.3041 27.9282L53.832 21.729C54.1095 21.4664 54.332 21.1518 54.4875 20.8031C54.643 20.4544 54.728 20.0785 54.7385 19.6968C54.7485 19.3151 54.683 18.9352 54.546 18.5788C54.409 18.2224 54.2035 17.8965 53.9405 17.6197C53.678 17.3414 53.363 17.1177 53.0135 16.9614C52.6645 16.8052 52.2875 16.7194 51.9055 16.7092C51.523 16.6989 51.142 16.7643 50.785 16.9017C50.428 17.039 50.1014 17.2455 49.8244 17.5094ZM28.5455 15.7836C28.8822 15.0122 29.3554 14.3079 29.9425 13.7047L23.7146 19.6148C23.4306 19.8762 23.2015 20.1916 23.0405 20.5424C22.8796 20.8932 22.79 21.2726 22.777 21.6584C22.764 22.0441 22.8279 22.4287 22.9649 22.7895C23.1019 23.1504 23.3094 23.4804 23.5751 23.7603C23.8409 24.0403 24.1596 24.2646 24.5129 24.4202C24.8662 24.5758 25.2468 24.6596 25.6328 24.6666C26.0187 24.6737 26.4022 24.604 26.7609 24.4615C27.1197 24.319 27.4465 24.1066 27.7223 23.8366L29.1391 22.4904C28.4856 21.512 28.0886 20.3849 27.9849 19.2129C27.8811 18.0409 28.0739 16.8616 28.5455 15.7836Z" fill="white" fill-opacity="0.75"/>
<path d="M34.1532 17.719L42.5019 9.79408C42.7787 9.53123 43.001 9.21643 43.1561 8.86768C43.3113 8.51888 43.3962 8.14298 43.406 7.76138C43.4158 7.37983 43.3504 7.00003 43.2135 6.64373C43.0765 6.28743 42.8707 5.96158 42.6078 5.68484C42.345 5.40804 42.0302 5.18574 41.6814 5.03062C41.3327 4.87549 40.9567 4.79059 40.5752 4.78075C40.1936 4.77092 39.8138 4.83634 39.4575 4.97329C39.1012 5.11024 38.7754 5.31602 38.4986 5.5789L29.9403 13.7047C28.8212 14.8562 28.1312 16.3568 27.9853 17.9558C27.8395 19.5548 28.2468 21.1555 29.1392 22.4903L34.0892 17.8007L34.1532 17.719ZM49.3963 21.6716C49.2331 20.696 48.8645 19.7662 48.3149 18.9439L43.2964 23.7086L35.0404 31.5452C34.4825 32.0787 34.1591 32.8118 34.1413 33.5835C34.1235 34.3553 34.4128 35.1025 34.9455 35.6611C35.2088 35.9384 35.5241 36.161 35.8734 36.3164C36.2227 36.4718 36.5993 36.5568 36.9815 36.5667C37.3637 36.5765 37.7441 36.5109 38.101 36.3737C38.4578 36.2365 38.7842 36.0304 39.0614 35.767L43.1618 31.8741L47.3041 27.9281C48.1397 27.1372 48.7677 26.1527 49.1326 25.0615C49.4975 23.9703 49.588 22.8061 49.3963 21.6716Z" fill="white"/>
<path d="M92.7395 15.4438C91.688 15.4323 90.6715 15.8222 89.897 16.534V16.0926C89.896 16.0063 89.8615 15.9239 89.8005 15.8629C89.7395 15.8019 89.657 15.7671 89.5705 15.766H86.834C86.791 15.7657 86.7485 15.7739 86.7085 15.7902C86.669 15.8066 86.633 15.8306 86.6025 15.861C86.572 15.8914 86.548 15.9275 86.5315 15.9673C86.5155 16.007 86.507 16.0496 86.5075 16.0926V31.0421C86.5105 31.1268 86.546 31.2071 86.607 31.266C86.668 31.3249 86.7495 31.3578 86.834 31.3577H89.562C89.645 31.355 89.724 31.3209 89.7825 31.2624C89.8415 31.2038 89.8765 31.1251 89.8795 31.0421V25.3571C90.668 26.0864 91.703 26.4908 92.777 26.4893C94.1655 26.5114 95.4915 25.9287 96.4185 24.8959C97.397 23.83 97.922 22.425 97.882 20.9787C97.926 19.5243 97.4005 18.1097 96.421 17.0372C95.957 16.5235 95.3885 16.1154 94.7535 15.8405C94.1185 15.5657 93.4315 15.4303 92.7395 15.4438ZM93.715 22.6736C93.2605 23.1237 92.647 23.3762 92.007 23.3762C91.3675 23.3762 90.7535 23.1237 90.299 22.6736C89.8375 22.2322 89.584 21.6165 89.595 20.9787C89.593 20.5004 89.7325 20.0323 89.997 19.6337C90.2615 19.2351 90.638 18.9239 91.0795 18.7398C91.521 18.5556 92.007 18.5067 92.4765 18.5992C92.9455 18.6917 93.3765 18.9215 93.715 19.2595C93.9445 19.4821 94.1255 19.7498 94.2465 20.0456C94.368 20.3414 94.4265 20.6591 94.419 20.9787C94.43 21.6187 94.1765 22.2322 93.715 22.6736ZM84.241 15.7594H81.511C81.468 15.7591 81.4255 15.7673 81.3855 15.7836C81.346 15.7999 81.31 15.824 81.2795 15.8544C81.249 15.8848 81.225 15.9209 81.2085 15.9606C81.1925 16.0004 81.184 16.043 81.1845 16.086V16.5605C80.391 15.8407 79.358 15.4426 78.287 15.4438C77.6005 15.432 76.92 15.5682 76.291 15.8432C75.6625 16.1181 75.1005 16.5254 74.643 17.0372C73.668 18.096 73.144 19.4933 73.182 20.9323C73.182 22.5014 73.6675 23.8432 74.643 24.9047C75.1075 25.4192 75.6775 25.8278 76.3135 26.1027C76.95 26.3776 77.638 26.5125 78.331 26.4981C79.388 26.5047 80.4055 26.1097 81.1845 25.3947V25.8493C81.1845 25.9332 81.2195 26.0126 81.2795 26.07C81.341 26.1318 81.425 26.1671 81.511 26.1671H84.239C84.3225 26.1649 84.402 26.1296 84.4595 26.07C84.519 26.0126 84.552 25.9332 84.5545 25.8493V16.086C84.5545 16.0021 84.519 15.9227 84.4595 15.8653C84.403 15.803 84.325 15.7651 84.241 15.7594ZM80.785 22.6846C80.322 23.0926 79.721 23.3089 79.104 23.2895C78.487 23.2701 77.9005 23.0165 77.464 22.5802C77.0275 22.1439 76.7735 21.5578 76.754 20.9409C76.734 20.3241 76.95 19.7228 77.3575 19.2595C77.5805 19.0299 77.848 18.8487 78.1435 18.7272C78.4395 18.6057 78.757 18.5465 79.077 18.5533C79.394 18.5541 79.708 18.6177 80.001 18.7404C80.2935 18.863 80.559 19.0422 80.782 19.2678C81.0055 19.4934 81.1815 19.7609 81.301 20.0549C81.4205 20.3489 81.4805 20.6636 81.478 20.9809C81.4955 21.6209 81.244 22.2388 80.785 22.6846ZM104.983 15.4438C103.928 15.4305 102.909 15.8189 102.132 16.534V16.0926C102.132 15.916 101.993 15.766 101.814 15.7594H99.078C99.035 15.7591 98.9925 15.7673 98.9525 15.7836C98.913 15.7999 98.8765 15.824 98.8465 15.8544C98.816 15.8848 98.792 15.9209 98.7755 15.9606C98.7595 16.0004 98.751 16.043 98.7515 16.086V31.0421C98.754 31.1268 98.79 31.2071 98.851 31.266C98.9115 31.3249 98.993 31.3578 99.078 31.3577H101.814C101.897 31.355 101.977 31.3209 102.035 31.2624C102.094 31.2038 102.129 31.1251 102.132 31.0421V25.3571C102.92 26.0859 103.954 26.4902 105.027 26.4893C106.416 26.5114 107.744 25.9309 108.671 24.8959C109.649 23.83 110.174 22.425 110.134 20.9787C110.178 19.5243 109.653 18.1097 108.671 17.0372C108.207 16.5223 107.638 16.1135 107.001 15.8386C106.364 15.5636 105.676 15.429 104.983 15.4438ZM105.959 22.6736C105.505 23.1237 104.89 23.3762 104.251 23.3762C103.611 23.3762 102.997 23.1237 102.543 22.6736C102.082 22.2322 101.827 21.6165 101.839 20.9787C101.836 20.5004 101.976 20.0323 102.241 19.6337C102.505 19.2351 102.882 18.9239 103.323 18.7398C103.765 18.5556 104.251 18.5067 104.72 18.5992C105.189 18.6917 105.62 18.9215 105.959 19.2595C106.189 19.4816 106.372 19.7489 106.494 20.0448C106.616 20.3407 106.676 20.6586 106.669 20.9787C106.68 21.6187 106.423 22.2322 105.959 22.6736ZM70.611 16.3927C70.042 15.7307 69.095 15.4438 67.8505 15.4438C67.1995 15.4231 66.553 15.5594 65.9655 15.841C65.641 16.0176 65.3435 16.2405 65.083 16.5031V10.785C65.083 10.7422 65.075 10.6998 65.059 10.6602C65.0425 10.6206 65.019 10.5845 64.9885 10.5542C64.9585 10.5238 64.9225 10.4997 64.883 10.4833C64.8435 10.4669 64.8015 10.4584 64.7585 10.4584H62.035C61.9485 10.4584 61.8655 10.4928 61.804 10.5541C61.743 10.6153 61.7085 10.6984 61.7085 10.785V25.8471C61.7085 25.9309 61.744 26.0104 61.8035 26.0678C61.865 26.1296 61.949 26.1649 62.035 26.1649H64.763C64.847 26.1627 64.926 26.1274 64.9835 26.0678C65.043 26.0104 65.0765 25.9309 65.0785 25.8471V20.8418C65.0785 19.9591 65.2485 19.3478 65.52 18.977C65.7915 18.6063 66.193 18.4253 66.8155 18.4187C67.4375 18.412 67.793 18.5864 67.998 18.86C68.2035 19.1337 68.3625 19.6898 68.36 20.5108V25.8471C68.3605 25.892 68.3695 25.9364 68.388 25.9775C68.406 26.0187 68.432 26.0557 68.465 26.0863C68.498 26.1169 68.5365 26.1405 68.579 26.1555C68.6215 26.1705 68.666 26.1767 68.711 26.1737H71.439C71.6195 26.1737 71.763 26.028 71.7655 25.8471V19.7163C71.7785 19.1359 71.7145 18.5555 71.5735 17.9927C71.3685 17.3979 71.0405 16.8528 70.611 16.3927ZM177.813 21.6363C177.873 21.5767 177.906 21.4995 177.909 21.4156V21.0007C177.909 19.3345 177.441 17.9618 176.478 16.9555C175.516 15.9491 174.201 15.4416 172.578 15.4438C170.956 15.446 169.603 15.9425 168.606 16.9511C167.608 17.9596 167.138 19.3235 167.138 20.9787C167.138 22.6338 167.642 23.9823 168.666 24.9864C169.69 25.9905 171.069 26.4915 172.737 26.4893C175.165 26.5047 176.93 25.3858 177.798 23.2429C177.816 23.1974 177.824 23.1482 177.821 23.099C177.818 23.0499 177.804 23.0021 177.78 22.9592C177.755 22.9164 177.722 22.8795 177.681 22.8515C177.641 22.8234 177.595 22.8048 177.547 22.7972L175.019 22.3911C174.896 22.369 174.77 22.4242 174.7 22.5279C174.136 23.3312 173.488 23.6865 172.647 23.6931C171.956 23.6931 171.479 23.4967 171.127 23.1216C170.8 22.7309 170.614 22.2388 170.605 21.7312H177.584C177.67 21.7312 177.752 21.6981 177.813 21.6363ZM170.775 19.3456C171.073 18.4628 171.632 18.0854 172.669 18.0612C173.132 18.0391 173.585 18.1869 173.944 18.4783C174.21 18.7121 174.412 19.0109 174.528 19.3456H170.775ZM151.273 9.98833C151.014 9.98653 150.757 10.037 150.518 10.1367C150.278 10.2365 150.062 10.3834 149.881 10.5687C149.555 10.8937 149.353 11.3217 149.307 11.7795C149.262 12.2374 149.377 12.6967 149.633 13.079C149.889 13.4614 150.27 13.7431 150.71 13.876C151.15 14.0089 151.623 13.9848 152.048 13.8078C152.472 13.6308 152.822 13.3119 153.038 12.9056C153.254 12.4992 153.322 12.0305 153.23 11.5797C153.139 11.1288 152.894 10.7237 152.537 10.4334C152.18 10.1432 151.734 9.98588 151.273 9.98833ZM161.127 15.4438C160.056 15.4438 159.021 15.841 158.229 16.5605V10.785C158.229 10.6984 158.195 10.6153 158.133 10.5541C158.072 10.4928 157.989 10.4584 157.903 10.4584H155.175C155.132 10.4581 155.089 10.4663 155.049 10.4827C155.01 10.499 154.974 10.523 154.944 10.5534C154.913 10.5838 154.889 10.6199 154.872 10.6597C154.856 10.6994 154.848 10.742 154.849 10.785V25.8471C154.849 26.028 154.994 26.1715 155.175 26.1737H157.903C158.083 26.1737 158.227 26.028 158.229 25.8471V25.3792C159.004 26.0977 160.024 26.4926 161.08 26.4827C161.773 26.497 162.462 26.3622 163.098 26.0873C163.734 25.8124 164.304 25.4038 164.769 24.8893C165.744 23.8366 166.234 22.4948 166.231 20.9169C166.273 19.476 165.754 18.0754 164.782 17.0107C164.321 16.5027 163.755 16.0999 163.125 15.8296C162.494 15.5592 161.813 15.4276 161.127 15.4438ZM162.063 22.6736C161.724 23.0126 161.293 23.2434 160.824 23.3365C160.354 23.4297 159.868 23.381 159.425 23.1966C158.984 23.0123 158.607 22.7006 158.343 22.3013C158.078 21.902 157.939 21.4331 157.942 20.9544C157.938 20.6378 157.996 20.3234 158.116 20.0299C158.235 19.7365 158.411 19.4699 158.635 19.2459C158.859 19.022 159.125 18.8453 159.419 18.7264C159.713 18.6074 160.027 18.5485 160.343 18.5533C160.662 18.5453 160.979 18.6029 161.275 18.7225C161.571 18.8421 161.839 19.0211 162.063 19.2485C162.51 19.7065 162.761 20.3216 162.761 20.9621C162.761 21.6026 162.51 22.2177 162.063 22.6758V22.6736ZM152.626 15.7594H149.898C149.855 15.7591 149.813 15.7673 149.773 15.7836C149.733 15.7999 149.697 15.824 149.666 15.8544C149.636 15.8848 149.613 15.9209 149.596 15.9606C149.579 16.0004 149.571 16.043 149.571 16.086V25.8471C149.571 25.9309 149.607 26.0104 149.666 26.0678C149.726 26.1274 149.804 26.1627 149.888 26.1649H152.615C152.796 26.1649 152.939 26.0192 152.941 25.8383V16.086C152.941 15.905 152.796 15.7616 152.615 15.7594H152.626ZM127.483 19.4515C126.95 19.2885 126.433 19.0772 125.938 18.8203C125.839 18.7541 125.783 18.6394 125.792 18.5202C125.79 18.4561 125.803 18.3925 125.832 18.3353C125.861 18.2781 125.905 18.2293 125.958 18.1936C126.124 18.0788 126.323 18.0229 126.525 18.0347C126.94 18.0347 127.408 18.2134 127.951 18.6217C128.087 18.7232 128.282 18.7012 128.392 18.5732L129.743 16.9732C129.772 16.9392 129.793 16.8996 129.806 16.8569C129.819 16.8142 129.824 16.7693 129.818 16.725C129.813 16.6807 129.798 16.6379 129.776 16.5993C129.754 16.5608 129.723 16.5272 129.687 16.5009C128.694 15.7645 127.486 15.3766 126.249 15.3974C125.274 15.3687 124.323 15.7074 123.585 16.3464C123.236 16.6455 122.957 17.0183 122.768 17.4381C122.58 17.8578 122.486 18.314 122.495 18.774C122.495 19.6126 122.678 20.2879 123.115 20.7469C123.552 21.206 124.203 21.537 125.143 21.8857C125.682 22.0561 126.203 22.2778 126.7 22.5478C126.754 22.5954 126.795 22.6555 126.82 22.7228C126.845 22.7901 126.854 22.8626 126.845 22.934C126.849 23.0348 126.829 23.1351 126.788 23.2272C126.747 23.3194 126.686 23.401 126.609 23.4658C126.412 23.625 126.162 23.7038 125.91 23.6865C125.258 23.6865 124.574 23.3643 123.841 22.6338C123.778 22.5676 123.689 22.5345 123.599 22.5389C123.506 22.5412 123.422 22.5831 123.362 22.6537L121.941 24.3221C121.886 24.3824 121.855 24.4611 121.855 24.5428C121.855 24.6245 121.886 24.7033 121.941 24.7635C122.434 25.3189 123.041 25.7611 123.72 26.0598C124.4 26.3584 125.136 26.5065 125.878 26.4937C127.152 26.4937 128.231 26.145 129.056 25.4344C129.871 24.7503 130.33 23.7351 130.308 22.6736C130.308 21.8372 130.087 21.1287 129.582 20.6388C129.077 20.1489 128.412 19.7869 127.483 19.4515Z" fill="white"/>
<path d="M122.052 15.7593H118.918C118.795 15.7593 118.682 15.8299 118.626 15.9402L116.137 20.9168L113.511 15.9336C113.483 15.881 113.441 15.8369 113.39 15.8062C113.34 15.7755 113.282 15.7592 113.222 15.7593H110.044C109.985 15.7575 109.927 15.7717 109.876 15.8004C109.825 15.8291 109.782 15.8712 109.753 15.9222C109.724 15.9732 109.709 16.0311 109.71 16.0899C109.711 16.1487 109.728 16.206 109.76 16.2558L114.292 24.3617L110.792 30.8875C110.737 30.9868 110.737 31.1082 110.792 31.2097C110.85 31.3091 110.957 31.3686 111.072 31.3686H114.162C114.283 31.3686 114.394 31.3024 114.451 31.1943L122.339 16.2382C122.394 16.1388 122.394 16.0175 122.339 15.9182C122.309 15.8687 122.267 15.828 122.217 15.8001C122.166 15.7722 122.11 15.7581 122.052 15.7593ZM148.175 15.7173C147.76 15.5259 147.307 15.4323 146.851 15.4437C146.377 15.4351 145.907 15.5292 145.473 15.7197C145.039 15.9102 144.652 16.1925 144.337 16.5471V16.0859C144.337 16.002 144.302 15.9226 144.242 15.8652C144.184 15.8059 144.104 15.7711 144.021 15.7681H141.287C141.106 15.7681 140.963 15.9137 140.961 16.0947V25.847C140.963 25.9308 140.998 26.0103 141.058 26.0677C141.115 26.1273 141.194 26.1626 141.278 26.1648H144.006C144.089 26.162 144.168 26.1276 144.227 26.0685C144.285 26.0094 144.319 25.9302 144.321 25.847V21.1573C144.321 20.2216 144.514 19.5662 144.84 19.1711C145.167 18.7761 145.637 18.5642 146.363 18.5598C146.76 18.5686 147.149 18.6702 147.497 18.8622C147.59 18.9107 147.702 18.9107 147.795 18.8622C147.89 18.8158 147.954 18.7253 147.969 18.6216L148.38 16.066C148.402 15.916 148.316 15.7725 148.175 15.7173ZM139.387 16.0682C138.597 15.6506 137.716 15.436 136.823 15.4437C136.066 15.4223 135.313 15.552 134.607 15.8252C133.901 16.0984 133.256 16.5096 132.711 17.0348C132.175 17.5489 131.752 18.169 131.469 18.8557C131.187 19.5423 131.05 20.2804 131.069 21.0227C131.056 21.7483 131.194 22.4687 131.475 23.1378C131.756 23.807 132.173 24.4102 132.7 24.9091C133.224 25.4235 133.845 25.8282 134.527 26.0995C135.209 26.3709 135.938 26.5033 136.672 26.4892C137.615 26.4892 138.546 26.2685 139.387 25.8448C139.497 25.7896 139.568 25.6771 139.568 25.5535V22.9052C139.568 22.844 139.551 22.7839 139.519 22.732C139.486 22.68 139.44 22.6381 139.385 22.6112C139.33 22.5843 139.269 22.5734 139.208 22.5797C139.146 22.586 139.089 22.6093 139.041 22.647C138.489 23.1104 137.796 23.3753 137.077 23.3907C136.401 23.4216 135.741 23.1833 135.24 22.7286C135.006 22.5064 134.823 22.2365 134.702 21.9373C134.582 21.638 134.527 21.3164 134.541 20.994C134.529 20.6712 134.586 20.3495 134.707 20.05C134.828 19.7504 135.01 19.4795 135.243 19.255C135.721 18.7915 136.368 18.5466 137.032 18.5686C137.769 18.5907 138.478 18.86 139.043 19.3344C139.14 19.4117 139.275 19.4249 139.385 19.3697C139.497 19.3146 139.568 19.202 139.568 19.0762V16.3573C139.568 16.2337 139.497 16.1234 139.387 16.0682Z" fill="white"/>
</svg>
