<svg width="50" height="51" viewBox="0 0 50 51" fill="none" xmlns="http://www.w3.org/2000/svg">
<rect x="0.5" y="0.610107" width="49" height="49" rx="7.5" fill="url(#paint0_linear_2_622)"/>
<rect x="0.5" y="0.610107" width="49" height="49" rx="7.5" stroke="#364152"/>
<path d="M17 31.1101V30.9101C17 29.2299 17 28.3899 17.327 27.7481C17.6146 27.1836 18.0735 26.7247 18.638 26.4371C19.2798 26.1101 20.1198 26.1101 21.8 26.1101H28.2C29.8802 26.1101 30.7202 26.1101 31.362 26.4371C31.9265 26.7247 32.3854 27.1836 32.673 27.7481C33 28.3899 33 29.2299 33 30.9101V31.1101M17 31.1101C15.8954 31.1101 15 32.0055 15 33.1101C15 34.2147 15.8954 35.1101 17 35.1101C18.1046 35.1101 19 34.2147 19 33.1101C19 32.0055 18.1046 31.1101 17 31.1101ZM33 31.1101C31.8954 31.1101 31 32.0055 31 33.1101C31 34.2147 31.8954 35.1101 33 35.1101C34.1046 35.1101 35 34.2147 35 33.1101C35 32.0055 34.1046 31.1101 33 31.1101ZM25 31.1101C23.8954 31.1101 23 32.0055 23 33.1101C23 34.2147 23.8954 35.1101 25 35.1101C26.1046 35.1101 27 34.2147 27 33.1101C27 32.0055 26.1046 31.1101 25 31.1101ZM25 31.1101V21.1101M19 21.1101H31C31.9319 21.1101 32.3978 21.1101 32.7654 20.9579C33.2554 20.7549 33.6448 20.3655 33.8478 19.8755C34 19.5079 34 19.042 34 18.1101C34 17.1782 34 16.7123 33.8478 16.3447C33.6448 15.8547 33.2554 15.4653 32.7654 15.2623C32.3978 15.1101 31.9319 15.1101 31 15.1101H19C18.0681 15.1101 17.6022 15.1101 17.2346 15.2623C16.7446 15.4653 16.3552 15.8547 16.1522 16.3447C16 16.7123 16 17.1782 16 18.1101C16 19.042 16 19.5079 16.1522 19.8755C16.3552 20.3655 16.7446 20.7549 17.2346 20.9579C17.6022 21.1101 18.0681 21.1101 19 21.1101Z" stroke="white" stroke-width="2" stroke-linecap="round" stroke-linejoin="round"/>
<defs>
<linearGradient id="paint0_linear_2_622" x1="25" y1="0.110107" x2="25" y2="50.1101" gradientUnits="userSpaceOnUse">
<stop stop-color="#364152"/>
<stop offset="1" stop-color="#202939"/>
</linearGradient>
</defs>
</svg>
