<svg width="32" height="32" viewBox="0 0 32 32" fill="none" xmlns="http://www.w3.org/2000/svg">
<path fill-rule="evenodd" clip-rule="evenodd" d="M24.2963 26.6668H7.70375C6.39463 26.6668 5.33337 25.6056 5.33337 24.2964V7.70387C5.33337 6.39475 6.39463 5.3335 7.70375 5.3335H24.2963C25.6055 5.3335 26.6667 6.39475 26.6667 7.70387V24.2964C26.6667 25.6056 25.6055 26.6668 24.2963 26.6668ZM20.5379 23.7039H23.7036V17.2006C23.7036 14.4488 22.1439 13.1184 19.9651 13.1184C17.7855 13.1184 16.8682 14.8159 16.8682 14.8159V13.4323H13.8172V23.7039H16.8682V18.3119C16.8682 16.8671 17.5332 16.0075 18.806 16.0075C19.9762 16.0075 20.5379 16.8336 20.5379 18.3119V23.7039ZM8.29627 10.1919C8.29627 11.2386 9.13836 12.0873 10.1775 12.0873C11.2167 12.0873 12.0583 11.2386 12.0583 10.1919C12.0583 9.14516 11.2167 8.29646 10.1775 8.29646C9.13836 8.29646 8.29627 9.14516 8.29627 10.1919ZM11.7835 23.7039H8.6022V13.4323H11.7835V23.7039Z" fill="white"/>
</svg>
