<svg width="140" height="24" viewBox="0 0 140 24" fill="none" xmlns="http://www.w3.org/2000/svg">
<g clip-path="url(#clip0_2_952)">
<path fill-rule="evenodd" clip-rule="evenodd" d="M12.3458 0.0214844C10.586 0.0214844 9.00704 1.10112 8.37045 2.73965L0.118042 23.9787H6.38702L12.8827 7.26102H12.8854C13.0484 6.85352 13.4472 6.56566 13.9133 6.56566C14.3795 6.56566 14.7783 6.85352 14.9413 7.26102H15.8067V3.86991H14.2002L15.6955 0.0214844H12.3458Z" fill="white"/>
<path fill-rule="evenodd" clip-rule="evenodd" d="M8.37078 2.73966C8.98158 1.16774 10.4596 0.110186 12.1325 0.0268018L12.1304 0.0214844H12.3461H14.7577H15.5874C17.3471 0.0214844 18.9261 1.10112 19.5628 2.73965L27.8151 23.9787H21.439L13.4365 3.38296C12.9783 2.37359 11.9607 1.6715 10.7789 1.6715C9.59421 1.6715 8.57449 2.37704 8.11792 3.3904L8.37078 2.73966Z" fill="#E6E6E6"/>
<path d="M37.7487 16.7048L38.972 13.4491H44.3729L45.6149 16.7048H47.9298L43.0182 3.53174H40.4398L35.5094 16.7048H37.7487ZM41.6631 5.86524L43.7706 11.6049H39.5743L41.6631 5.86524Z" fill="white"/>
<path d="M48.9484 13.5244C49.0049 15.6133 50.774 16.8177 53.352 16.8177C55.6856 16.8177 57.4356 15.651 57.4356 13.8067C57.4356 11.6614 55.6478 11.2098 53.446 10.9463C52.0534 10.7958 51.1315 10.6829 51.1315 9.77956C51.1315 9.00799 51.9217 8.5187 53.1263 8.5187C54.3305 8.5187 55.1585 9.13972 55.2716 10.0242H57.2664C57.1346 8.04824 55.4595 6.95676 53.0885 6.95676C50.774 6.93794 49.1367 8.12352 49.1367 9.94891C49.1367 11.9437 50.8679 12.4141 53.0698 12.6776C54.5562 12.8658 55.4408 12.9411 55.4408 13.9761C55.4408 14.7477 54.6128 15.2369 53.352 15.2369C51.8842 15.2369 51.0184 14.5219 50.9432 13.5244H48.9484Z" fill="white"/>
<path d="M58.9774 13.5244C59.0339 15.6133 60.8027 16.8177 63.3811 16.8177C65.7143 16.8177 67.4646 15.651 67.4646 13.8067C67.4646 11.6614 65.6768 11.2098 63.475 10.9463C62.0825 10.7958 61.1601 10.6829 61.1601 9.77956C61.1601 9.00799 61.9507 8.5187 63.155 8.5187C64.3596 8.5187 65.1876 9.13972 65.3003 10.0242H67.2951C67.1633 8.04824 65.4885 6.95676 63.1175 6.95676C60.8027 6.93794 59.1657 8.12352 59.1657 9.94891C59.1657 11.9437 60.897 12.4141 63.0988 12.6776C64.5853 12.8658 65.4698 12.9411 65.4698 13.9761C65.4698 14.7477 64.6418 15.2369 63.3811 15.2369C61.9129 15.2369 61.0475 14.5219 60.9722 13.5244H58.9774Z" fill="white"/>
<path d="M74.1772 16.8175C76.5669 16.8175 78.1855 15.3684 78.5243 13.4678H76.4916C76.2094 14.5404 75.3061 15.1614 74.0641 15.1614C72.4646 15.1614 71.4296 14.0888 71.373 12.4516V12.3199H78.6369C78.6747 12.0564 78.6935 11.7929 78.6935 11.5483C78.6369 8.72548 76.7739 6.95654 73.9889 6.95654C71.1473 6.95654 69.2465 8.93249 69.2465 11.9058C69.2465 14.8604 71.1473 16.8175 74.1772 16.8175ZM71.4483 10.8332C71.5988 9.45944 72.709 8.59376 74.0076 8.59376C75.4192 8.59376 76.4164 9.40295 76.586 10.8332H71.4483Z" fill="white"/>
<path d="M91.9852 6.95654C90.4044 6.95654 89.3132 7.65284 88.6922 8.70669C88.1086 7.46466 86.9796 6.95654 85.7189 6.95654C84.2699 6.97537 83.4418 7.61522 82.8961 8.3303L82.67 7.06948H80.9012V16.7046H82.9335V11.5483C82.9335 9.83579 83.7993 8.70669 85.1918 8.70669C86.5278 8.70669 87.2241 9.59116 87.2241 11.2848V16.7046H89.2754V11.4918C89.2754 9.76051 90.16 8.70669 91.5525 8.70669C92.8698 8.70669 93.566 9.59116 93.566 11.2848V16.7046H95.5986V11.1531C95.5986 8.10447 93.98 6.95654 91.9852 6.95654Z" fill="white"/>
<path d="M103.162 6.95671C101.675 6.95671 100.678 7.63418 100.038 8.49986V3.53174H98.0056V16.7048H99.7743L100.019 15.3122C100.621 16.1778 101.656 16.8177 103.162 16.8177C105.797 16.8177 107.716 14.8417 107.716 11.8872C107.716 8.78214 105.797 6.95671 103.162 6.95671ZM102.823 15.1052C101.129 15.1052 100.019 13.7691 100.019 11.8684C100.019 10.0053 101.129 8.68804 102.823 8.68804C104.517 8.68804 105.646 10.0053 105.646 11.8872C105.646 13.7879 104.517 15.1052 102.823 15.1052Z" fill="white"/>
<path d="M109.909 16.7048H111.942V3.53174H109.909V16.7048Z" fill="white"/>
<path d="M117.283 16.7614L116.907 17.7023C116.606 18.4927 116.418 18.6809 115.627 18.6809H114.197V20.4686H116.38C117.792 20.4686 118.206 19.7724 118.808 18.2104L123.174 7.06982H121.009L118.394 14.3903L115.702 7.06982H113.538L117.283 16.7614Z" fill="white"/>
<path d="M125.662 16.7048L126.886 13.4491H132.287L133.529 16.7048H135.843L130.932 3.53174H128.353L123.423 16.7048H125.662ZM129.577 5.86524L131.685 11.6049H127.488L129.577 5.86524Z" fill="white"/>
<path d="M137.759 16.7048H139.923V3.53174H137.759V16.7048Z" fill="white"/>
</g>
<defs>
<clipPath id="clip0_2_952">
<rect width="140" height="24" fill="white"/>
</clipPath>
</defs>
</svg>
