<svg width="200" height="41" viewBox="0 0 200 41" fill="none" xmlns="http://www.w3.org/2000/svg">
<mask id="mask0_2_450" style="mask-type:luminance" maskUnits="userSpaceOnUse" x="56" y="5" width="88" height="32">
<path d="M56 5.40002H144V36.1601H56V5.40002Z" fill="white"/>
</mask>
<g mask="url(#mask0_2_450)">
<path d="M60.8065 5.40002H56V29.4315H60.8065V5.40002Z" fill="white"/>
<path fill-rule="evenodd" clip-rule="evenodd" d="M101.17 20.7794C101.17 25.5577 105.044 29.4302 109.821 29.4302C114.597 29.4302 118.471 25.5564 118.471 20.7794C118.471 16.0025 114.597 12.1287 109.821 12.1287C105.044 12.1287 101.17 16.0025 101.17 20.7794ZM105.976 20.7794C105.976 18.6553 107.698 16.9339 109.822 16.9339C111.946 16.9339 113.667 18.6553 113.667 20.7794C113.667 22.9035 111.946 24.6249 109.822 24.6249C107.698 24.6249 105.976 22.9035 105.976 20.7794Z" fill="white"/>
<path fill-rule="evenodd" clip-rule="evenodd" d="M125.277 28.6197C128.916 30.3835 133.286 29.389 135.807 26.2215C138.329 23.0553 138.329 18.5601 135.807 15.3926C133.286 12.2264 128.916 11.2306 125.277 12.9945V12.1287H120.396V36.1601H125.277V28.6197ZM125.202 20.7807C125.202 18.6566 126.924 16.9352 129.048 16.9352C131.172 16.9352 132.894 18.6566 132.894 20.7807C132.894 22.9048 131.172 24.6262 129.048 24.6262C126.924 24.6262 125.202 22.9048 125.202 20.7807Z" fill="white"/>
<path fill-rule="evenodd" clip-rule="evenodd" d="M90.4615 12.1287H71.4965C66.663 12.1287 62.743 16.0025 62.743 20.7794C62.743 25.5564 66.6615 29.4302 71.4965 29.4302H90.4615C95.295 29.4302 99.215 25.5564 99.215 20.7794C99.215 16.0025 95.2965 12.1287 90.4615 12.1287ZM90.4615 24.6249H71.4965C69.3465 24.6249 67.606 22.9048 67.606 20.7794C67.606 18.6541 69.3465 16.9339 71.4965 16.9339H90.4615C92.6115 16.9339 94.352 18.6541 94.352 20.7794C94.352 22.9048 92.6115 24.6249 90.4615 24.6249Z" fill="white"/>
<path fill-rule="evenodd" clip-rule="evenodd" d="M140.543 12.5905H139.798V14.7159H139.026V12.5905H138.317V11.9087H140.543V12.5905Z" fill="white"/>
<path fill-rule="evenodd" clip-rule="evenodd" d="M141.692 14.7159H140.929V11.9087H141.891L142.464 13.4242L143.018 11.9087H144V14.7159H143.23V13.2222L142.826 14.2798H142.105L141.692 13.2222V14.7159Z" fill="white"/>
</g>
</svg>
