<svg width="201" height="41" viewBox="0 0 201 41" fill="none" xmlns="http://www.w3.org/2000/svg">
<path d="M20.032 11.3836H27.278V11.6605L26.1112 12.8141C25.9741 12.9332 25.8653 13.0808 25.7927 13.2463C25.72 13.4119 25.6854 13.5913 25.6911 13.7716V31.78H25.4111L11.7125 19.3437V28.6421C11.7019 28.8203 11.7333 28.9984 11.8042 29.1626C11.875 29.3267 11.9834 29.4724 12.1209 29.5881L13.2877 30.7417V31.0186H6.03003V30.7417L7.19688 29.5881C7.33643 29.4736 7.44708 29.3284 7.51998 29.1642C7.59288 29 7.62608 28.8212 7.61693 28.6421V10.4837H7.87363L21.5839 22.8854V13.7716C21.5992 13.5934 21.5723 13.4142 21.5055 13.248C21.4387 13.0818 21.3337 12.9333 21.1988 12.8141L20.032 11.6605V11.3836ZM47.4876 25.4465C47.4876 29.2651 44.7689 31.0186 40.3232 31.0186H28.8883V30.7417L30.0551 29.5881C30.1963 29.4724 30.3079 29.3254 30.3809 29.159C30.4539 28.9926 30.4862 28.8116 30.4752 28.6306V13.7716C30.4862 13.5906 30.4539 13.4096 30.3809 13.2432C30.3079 13.0769 30.1963 12.9298 30.0551 12.8141L28.8883 11.6605V11.3836H40.4282C44.6055 11.3836 46.6825 13.3448 46.6825 16.6904C46.6483 17.6535 46.2827 18.5763 45.6463 19.3063C45.0098 20.0363 44.1405 20.5297 43.182 20.705C45.854 21.155 47.5342 22.7239 47.5342 25.4004M34.9325 19.1592H39.8682C41.385 19.1592 42.2018 18.4439 42.2018 17.0711C42.2018 15.6982 41.5134 14.9714 39.8682 14.9714H34.9325V19.1592ZM42.9603 24.9274C42.9603 23.1969 41.8984 22.5163 39.7865 22.5163H34.9325V27.3154H39.7865C41.5834 27.3154 42.9603 26.704 42.9603 24.9274ZM59.7045 27.6846C56.332 27.6846 54.0335 25.1235 54.0335 21.2934C54.0335 17.2326 56.577 14.8099 59.8675 14.8099C60.772 14.7202 61.681 14.9313 62.45 15.4098C63.2195 15.8883 63.805 16.6069 64.115 17.4518L64.4185 17.5325L66.087 10.8298L65.807 10.7145C65.2695 11.182 64.574 11.4331 63.858 11.4182C62.8895 11.4182 61.3845 11.049 59.576 11.049C53.742 11.049 49.1911 14.9253 49.1911 21.2703C49.1911 27.6154 53.672 31.4224 59.4825 31.4224C60.8685 31.4725 62.25 31.2357 63.538 30.7271C64.826 30.2185 65.992 29.4494 66.962 28.4691L64.3715 25.3542C63.84 26.083 63.138 26.6736 62.325 27.0754C61.512 27.4773 60.613 27.6784 59.7045 27.6615M80.4505 11.672L81.6175 12.8256C81.7555 12.9447 81.8655 13.092 81.94 13.2573C82.0145 13.4227 82.052 13.6021 82.049 13.7832V23.4392C82.049 26.2541 80.614 27.6384 78.0935 27.6384C75.573 27.6384 74.0915 26.3233 74.0915 23.4392V13.7716C74.0815 13.5897 74.116 13.408 74.191 13.2416C74.266 13.0752 74.3795 12.9287 74.523 12.8141L75.69 11.6605V11.3951H68.094V11.672L69.2605 12.8256C69.402 12.9414 69.5135 13.0884 69.5865 13.2548C69.6595 13.4211 69.6915 13.6022 69.6805 13.7832V23.3238C69.6805 28.7575 73.181 31.3993 78.0935 31.3993C83.006 31.3993 86.518 28.7229 86.518 23.3238V13.7716C86.507 13.5906 86.5395 13.4096 86.6125 13.2432C86.6855 13.0769 86.797 12.9298 86.938 12.8141L88.105 11.6605V11.3951H80.4505V11.672ZM104.044 28.296V22.6316C104.044 19.263 102.352 17.3018 99.4465 17.3018C98.518 17.2794 97.6015 17.5179 96.8045 17.9896C96.007 18.4613 95.3615 19.1469 94.9425 19.9667V17.5556H89.2835V17.8555L90.4505 19.0092C90.812 19.3668 90.8705 19.5975 90.8705 20.3013V28.3768C90.8705 29.0805 90.8705 29.3112 90.4505 29.6689L89.2835 30.8225V31.0994H96.611V30.8225L95.4445 29.6689C95.0825 29.3112 95.0245 29.0805 95.0245 28.3768V23.7737C95.0245 22.1817 95.8175 20.9242 97.603 20.9242C99.108 20.9242 99.8085 22.0087 99.8085 23.5661V31.0186H105.573V30.7417L104.406 29.5881C104.044 29.2305 103.997 28.9997 103.997 28.296M112.889 28.296V17.5556H107.171V17.8555L108.338 19.0092C108.7 19.3668 108.758 19.5975 108.758 20.3013V28.3768C108.758 29.0805 108.758 29.3112 108.338 29.6689L107.171 30.8225V31.0994H114.546V30.8225L113.379 29.6689C113.017 29.3112 112.947 29.0805 112.947 28.3768M110.812 15.5482C111.137 15.553 111.46 15.4928 111.761 15.3713C112.062 15.2498 112.335 15.0694 112.563 14.841C112.792 14.6127 112.972 14.341 113.092 14.0422C113.212 13.7435 113.27 13.4239 113.262 13.1025C113.268 12.7827 113.209 12.4648 113.089 12.168C112.968 11.8713 112.787 11.6017 112.559 11.3755C112.33 11.1492 112.057 10.971 111.757 10.8515C111.457 10.732 111.135 10.6736 110.812 10.6799C110.468 10.6468 110.122 10.6851 109.794 10.7924C109.466 10.8996 109.165 11.0735 108.91 11.3027C108.654 11.532 108.45 11.8116 108.31 12.1235C108.17 12.4355 108.098 12.7729 108.098 13.1141C108.098 13.4552 108.17 13.7927 108.31 14.1046C108.45 14.4166 108.654 14.6961 108.91 14.9254C109.165 15.1546 109.466 15.3285 109.794 15.4358C110.122 15.543 110.468 15.5813 110.812 15.5482ZM130.181 17.5441H124.954L122.538 24.0506H122.468L119.703 17.5556H114.546V17.8555C115.469 18.5624 116.199 19.4864 116.669 20.5435L122.223 31.6185H122.527L128.046 20.5435C128.499 19.4734 129.237 18.5445 130.181 17.8555V17.5441ZM143.576 24.2813C143.576 24.7543 143.576 25.1927 143.576 25.435H134.16C134.303 26.2047 134.734 26.8927 135.368 27.3612C136.002 27.8297 136.792 28.0441 137.579 27.9615C138.115 27.9822 138.649 27.89 139.145 27.6911C139.642 27.4922 140.091 27.1911 140.461 26.8078L142.795 29.5535C141.21 30.7842 139.23 31.4106 137.217 31.3186C132.725 31.3186 129.866 28.619 129.866 24.3967C129.801 23.4367 129.944 22.474 130.285 21.573C130.627 20.672 131.159 19.8534 131.846 19.172C132.533 18.4905 133.359 17.9619 134.269 17.6215C135.179 17.2811 136.153 17.1367 137.124 17.198C141.639 17.198 143.623 20.1398 143.623 24.1775M139.364 22.9316C139.389 22.5953 139.342 22.2576 139.227 21.9402C139.112 21.6228 138.931 21.3327 138.696 21.0883C138.461 20.844 138.177 20.6509 137.862 20.5213C137.547 20.3917 137.208 20.3286 136.867 20.3359C136.155 20.3234 135.467 20.5889 134.951 21.0748C134.436 21.5606 134.135 22.2278 134.113 22.9316H139.364ZM150.846 20.1628V17.5556H145.187V17.8555L146.353 19.0092C146.715 19.3668 146.774 19.5975 146.774 20.3013V28.3768C146.774 29.0805 146.774 29.3112 146.353 29.6689L145.187 30.8225V31.0994H152.526V30.8225L151.359 29.6689C151.009 29.3112 150.951 29.0805 150.951 28.3768V24.2237C150.951 22.2048 151.954 21.1204 153.565 21.1204C154.314 21.1168 155.037 21.3976 155.583 21.9048L156.68 17.694C156.132 17.4283 155.528 17.2939 154.918 17.3018C154.009 17.3186 153.128 17.614 152.397 18.1471C151.665 18.6803 151.119 19.425 150.834 20.2782M165.42 22.7701C163.553 22.4701 162.152 22.4701 162.152 21.3742C162.152 20.7512 162.677 20.3359 163.903 20.3359C165.56 20.3359 167.1 20.8781 167.672 22.124L167.963 22.2048L169.282 17.0711L169.002 16.9672C168.494 17.4155 167.839 17.6657 167.158 17.671C166.236 17.671 165.385 17.3133 163.658 17.3133C160.671 17.3133 157.823 18.3747 157.823 21.7087C157.823 24.3159 159.924 25.3196 161.931 25.6542C163.938 25.9887 165.326 26.0349 165.326 27.1539C165.326 27.8 164.754 28.3076 163.541 28.3076C161.901 28.3222 160.305 27.7761 159.025 26.7617L157.077 29.6342C158.877 30.8927 161.046 31.5293 163.249 31.4455C167.17 31.4455 169.597 29.7381 169.597 26.7386C169.597 24.1544 167.38 23.1508 165.338 22.8047M184.392 29.6227L185.559 30.7764V31.0532H179.888V29.1959C179.461 29.9162 178.84 30.5048 178.094 30.896C177.348 31.2872 176.507 31.4655 175.664 31.4109C175.116 31.4537 174.564 31.3842 174.044 31.2068C173.524 31.0294 173.046 30.7479 172.641 30.3798C172.236 30.0117 171.912 29.565 171.689 29.0675C171.467 28.57 171.35 28.0325 171.347 27.4885C171.347 24.5005 173.424 23.1162 177.963 23.0239C179.422 23.0239 179.807 22.6778 179.807 21.8702C179.807 21.0627 179.141 20.4974 177.38 20.4974C176.753 20.5014 176.134 20.6337 175.562 20.8859C174.989 21.138 174.476 21.5046 174.054 21.9625L171.837 19.3783C172.65 18.656 173.599 18.1004 174.631 17.7439C175.663 17.3874 176.755 17.2372 177.846 17.3018C182.152 17.3018 184.019 19.0669 184.019 22.5163V28.2845C184.019 28.9882 184.077 29.2189 184.439 29.5766M179.853 24.962C179.28 25.1001 178.693 25.1736 178.103 25.1812C176.224 25.2965 175.571 25.9772 175.571 26.9001C175.561 27.1032 175.594 27.3062 175.669 27.4958C175.743 27.6853 175.858 27.8571 176.004 27.9998C176.151 28.1425 176.326 28.253 176.519 28.3239C176.712 28.3948 176.918 28.4247 177.123 28.4114C177.473 28.447 177.827 28.4093 178.162 28.3007C178.497 28.1921 178.804 28.0151 179.065 27.7811C179.326 27.5472 179.534 27.2615 179.676 26.9427C179.818 26.624 179.89 26.2793 179.888 25.931L179.853 24.962ZM192.887 29.5766C192.513 29.2189 192.455 28.9882 192.455 28.2845V9.78003H186.714V10.0569L187.881 11.2105C188.243 11.5682 188.301 11.7989 188.301 12.4911V28.296C188.301 28.9997 188.243 29.2305 187.881 29.5881L186.714 30.7417V31.0186H194.03V30.7417L192.887 29.5766Z" fill="white"/>
</svg>
