<svg width="16" height="17" viewBox="0 0 16 17" fill="none" xmlns="http://www.w3.org/2000/svg">
<path d="M8.00004 15.0067C11.6819 15.0067 14.6667 12.0219 14.6667 8.34001C14.6667 4.65811 11.6819 1.67334 8.00004 1.67334C4.31814 1.67334 1.33337 4.65811 1.33337 8.34001C1.33337 12.0219 4.31814 15.0067 8.00004 15.0067Z" stroke="white" stroke-width="1.33333" stroke-linecap="round" stroke-linejoin="round"/>
<path d="M6.33337 6.31699C6.33337 5.99881 6.33337 5.83972 6.39987 5.7509C6.45781 5.67349 6.54651 5.62507 6.64296 5.61817C6.75364 5.61027 6.88744 5.6963 7.15511 5.86837L10.3022 7.89151C10.5344 8.04077 10.6506 8.11544 10.6906 8.21037C10.7257 8.29331 10.7257 8.38691 10.6906 8.46984C10.6506 8.56477 10.5344 8.63944 10.3022 8.78871L7.15511 10.8118C6.88744 10.9839 6.75364 11.07 6.64296 11.062C6.54651 11.0552 6.45781 11.0067 6.39987 10.9293C6.33337 10.8405 6.33337 10.6814 6.33337 10.3632V6.31699Z" stroke="white" stroke-width="1.33333" stroke-linecap="round" stroke-linejoin="round"/>
</svg>
