<svg width="50" height="51" viewBox="0 0 50 51" fill="none" xmlns="http://www.w3.org/2000/svg">
<rect x="0.5" y="0.610107" width="49" height="49" rx="7.5" fill="url(#paint0_linear_2_635)"/>
<rect x="0.5" y="0.610107" width="49" height="49" rx="7.5" stroke="#364152"/>
<path d="M22 25.1101H17.6C17.0399 25.1101 16.7599 25.1101 16.546 25.2191C16.3579 25.315 16.2049 25.4679 16.109 25.6561C16 25.87 16 26.15 16 26.7101V32.5101C16 33.0702 16 33.3502 16.109 33.5641C16.2049 33.7523 16.3579 33.9052 16.546 34.0011C16.7599 34.1101 17.0399 34.1101 17.6 34.1101H22M22 34.1101H28M22 34.1101V21.7101C22 21.1501 22 20.87 22.109 20.6561C22.2049 20.468 22.3579 20.315 22.546 20.2191C22.7599 20.1101 23.0399 20.1101 23.6 20.1101H26.4C26.9601 20.1101 27.2401 20.1101 27.454 20.2191C27.6422 20.315 27.7951 20.468 27.891 20.6561C28 20.87 28 21.1501 28 21.7101V34.1101M28 34.1101H32.4C32.9601 34.1101 33.2401 34.1101 33.454 34.0011C33.6422 33.9052 33.7951 33.7523 33.891 33.5641C34 33.3502 34 33.0702 34 32.5101V17.7101C34 17.1501 34 16.87 33.891 16.6561C33.7951 16.468 33.6422 16.315 33.454 16.2191C33.2401 16.1101 32.9601 16.1101 32.4 16.1101H29.6C29.0399 16.1101 28.7599 16.1101 28.546 16.2191C28.3578 16.315 28.2049 16.468 28.109 16.6561C28 16.87 28 17.1501 28 17.7101V21.1101" stroke="white" stroke-width="2" stroke-linecap="round" stroke-linejoin="round"/>
<defs>
<linearGradient id="paint0_linear_2_635" x1="25" y1="0.110107" x2="25" y2="50.1101" gradientUnits="userSpaceOnUse">
<stop stop-color="#364152"/>
<stop offset="1" stop-color="#202939"/>
</linearGradient>
</defs>
</svg>
