<svg width="201" height="41" viewBox="0 0 201 41" fill="none" xmlns="http://www.w3.org/2000/svg">
<path d="M121.489 26.9275C118.521 26.9275 116.998 24.4845 116.998 21.4834C116.998 18.483 118.495 16.1726 121.489 16.1726C124.536 16.1726 125.98 18.5889 125.98 21.4834C125.953 24.538 124.43 26.9275 121.489 26.9275ZM92.456 16.1726C94.1935 16.1726 94.9155 17.1815 94.9155 18.0577C94.9155 20.1825 92.75 21.1122 88.232 21.2449C88.232 18.6157 89.729 16.1726 92.456 16.1726ZM73.207 26.9275C70.4005 26.9275 69.224 24.6439 69.224 21.4834C69.224 18.3504 70.4275 16.1726 73.207 16.1726C76.0415 16.1726 77.3785 18.4301 77.3785 21.4834C77.3785 24.6706 75.9875 26.9275 73.207 26.9275ZM49.4679 13.0657H45.0833L52.355 29.7429C50.9645 32.8231 50.2161 33.5934 49.2537 33.5934C48.2379 33.5934 47.2756 32.7701 46.5803 32.0528L44.6556 34.6023C45.9653 35.9835 47.7561 36.78 49.6005 36.78C51.9 36.78 53.6645 35.4523 54.68 33.0622L63.0755 13.0389H58.771L54.3865 24.9895L49.4679 13.0657ZM165.6 16.1726C167.738 16.1726 168.166 17.633 168.166 21.0587V30.0612H171.962V18.6954C171.962 14.6058 169.155 12.8266 166.562 12.8266C164.263 12.8266 162.151 14.2608 160.975 16.9162C160.306 14.3666 158.168 12.826 155.681 12.826C153.516 12.826 151.35 14.2072 150.175 16.7835V13.0657H146.378V30.035H150.175V22.7856C150.175 19.1201 152.099 16.1726 154.719 16.1726C156.858 16.1726 157.259 17.633 157.259 21.0587V30.0612H161.055L161.028 22.785C161.028 19.1201 162.98 16.1726 165.6 16.1726ZM135.308 13.0651H133.386V30.0344H137.181V23.5285C137.181 19.4122 139 16.6241 141.7 16.6241C142.394 16.6241 142.983 16.6509 143.624 16.9162L144.213 12.9063C143.731 12.8533 143.304 12.7998 142.876 12.7998C140.203 12.7998 138.278 14.6325 137.155 16.9959V13.0651H135.308ZM121.489 12.7992C116.463 12.7992 113.067 16.6235 113.067 21.4567C113.067 26.476 116.516 30.22 121.489 30.22C126.542 30.22 129.99 26.3696 129.99 21.4567C129.963 16.5968 126.461 12.7992 121.489 12.7992ZM92.6695 26.9269C90.6915 26.9269 89.221 25.9181 88.606 23.873C93.632 23.6606 98.551 22.4394 98.551 18.0042C98.551 15.4552 96.0385 12.826 92.4295 12.826C87.5635 12.826 84.275 16.7824 84.275 21.4834C84.275 26.3963 87.51 30.2468 92.349 30.2468C95.717 30.2468 97.856 28.8923 99.5405 26.9269L97.696 24.4309C95.744 26.4225 94.5415 26.9269 92.6695 26.9269ZM73.956 12.7998C72.0315 12.7998 70.106 13.9152 69.358 15.6682V13.0651H65.5615V36.6997H69.358V28.2564C70.1595 29.4782 72.0045 30.2741 73.6355 30.2741C78.688 30.2741 81.3615 26.5301 81.3615 21.484C81.3345 16.492 78.714 12.7998 73.956 12.7998ZM47.3291 6.26718H29.4172V9.95823H36.4217V30.035H40.4049V9.95823H47.3285L47.3291 6.26718ZM103.764 13.0657H101.491V16.4647H103.764V30.035H107.56V16.4647H111.25V13.0657H107.56V10.4097C107.56 8.71078 108.256 8.12608 109.833 8.12608C110.421 8.12608 110.955 8.28548 111.677 8.52463L112.533 5.33799C111.838 4.93945 110.447 4.78003 109.539 4.78003C105.903 4.78003 103.764 6.95778 103.764 10.7285V13.0657Z" fill="white"/>
</svg>
