<svg width="50" height="51" viewBox="0 0 50 51" fill="none" xmlns="http://www.w3.org/2000/svg">
<rect x="0.5" y="0.610107" width="49" height="49" rx="7.5" fill="url(#paint0_linear_2_648)"/>
<rect x="0.5" y="0.610107" width="49" height="49" rx="7.5" stroke="#364152"/>
<path d="M24 17.6101H31.3C32.4201 17.6101 32.9802 17.6101 33.408 17.8281C33.7843 18.0198 34.0903 18.3258 34.282 18.7021C34.5 19.1299 34.5 19.69 34.5 20.8101V22.1101C34.5 23.042 34.5 23.5079 34.3478 23.8755C34.1448 24.3655 33.7554 24.7549 33.2654 24.9579C32.8978 25.1101 32.4319 25.1101 31.5 25.1101M26 32.6101H18.7C17.5799 32.6101 17.0198 32.6101 16.592 32.3921C16.2157 32.2004 15.9097 31.8944 15.718 31.5181C15.5 31.0903 15.5 30.5302 15.5 29.4101V28.1101C15.5 27.1782 15.5 26.7123 15.6522 26.3447C15.8552 25.8547 16.2446 25.4653 16.7346 25.2623C17.1022 25.1101 17.5681 25.1101 18.5 25.1101M23.3 27.6101H26.7C26.98 27.6101 27.12 27.6101 27.227 27.5556C27.3211 27.5077 27.3976 27.4312 27.4455 27.3371C27.5 27.2301 27.5 27.0901 27.5 26.8101V23.4101C27.5 23.1301 27.5 22.9901 27.4455 22.8831C27.3976 22.789 27.3211 22.7125 27.227 22.6646C27.12 22.6101 26.98 22.6101 26.7 22.6101H23.3C23.02 22.6101 22.88 22.6101 22.773 22.6646C22.6789 22.7125 22.6024 22.789 22.5545 22.8831C22.5 22.9901 22.5 23.1301 22.5 23.4101V26.8101C22.5 27.0901 22.5 27.2301 22.5545 27.3371C22.6024 27.4312 22.6789 27.5077 22.773 27.5556C22.88 27.6101 23.02 27.6101 23.3 27.6101ZM30.8 35.1101H34.2C34.48 35.1101 34.62 35.1101 34.727 35.0556C34.8211 35.0077 34.8976 34.9312 34.9455 34.8371C35 34.7301 35 34.5901 35 34.3101V30.9101C35 30.6301 35 30.4901 34.9455 30.3831C34.8976 30.289 34.8211 30.2125 34.727 30.1646C34.62 30.1101 34.48 30.1101 34.2 30.1101H30.8C30.52 30.1101 30.38 30.1101 30.273 30.1646C30.1789 30.2125 30.1024 30.289 30.0545 30.3831C30 30.4901 30 30.6301 30 30.9101V34.3101C30 34.5901 30 34.7301 30.0545 34.8371C30.1024 34.9312 30.1789 35.0077 30.273 35.0556C30.38 35.1101 30.52 35.1101 30.8 35.1101ZM15.8 20.1101H19.2C19.48 20.1101 19.62 20.1101 19.727 20.0556C19.8211 20.0077 19.8976 19.9312 19.9455 19.8371C20 19.7301 20 19.5901 20 19.3101V15.9101C20 15.6301 20 15.4901 19.9455 15.3831C19.8976 15.289 19.8211 15.2125 19.727 15.1646C19.62 15.1101 19.48 15.1101 19.2 15.1101H15.8C15.52 15.1101 15.38 15.1101 15.273 15.1646C15.1789 15.2125 15.1024 15.289 15.0545 15.3831C15 15.4901 15 15.6301 15 15.9101V19.3101C15 19.5901 15 19.7301 15.0545 19.8371C15.1024 19.9312 15.1789 20.0077 15.273 20.0556C15.38 20.1101 15.52 20.1101 15.8 20.1101Z" stroke="white" stroke-width="2" stroke-linecap="round" stroke-linejoin="round"/>
<defs>
<linearGradient id="paint0_linear_2_648" x1="25" y1="0.110107" x2="25" y2="50.1101" gradientUnits="userSpaceOnUse">
<stop stop-color="#364152"/>
<stop offset="1" stop-color="#202939"/>
</linearGradient>
</defs>
</svg>
