<svg width="201" height="41" viewBox="0 0 201 41" fill="none" xmlns="http://www.w3.org/2000/svg">
<path d="M49.5678 32.2723H43.337L34.0601 9.28772H41.1216L46.4755 22.9954L51.7371 9.28772H58.7986L49.5678 32.2723Z" fill="white"/>
<path d="M77.9986 32.2723H60.4601V9.28772H77.9061V14.8262H66.7831V18.2416H76.983V23.2723H66.7831V26.6877H77.9986V32.2723Z" fill="white"/>
<path d="M98.3526 32.2723H80.7675V9.28772H98.2141V14.8262H87.091V18.2416H97.2911V23.2723H87.091V26.6877H98.3061V32.2723H98.3526Z" fill="white"/>
<path d="M110.445 9.28772C114.045 9.28772 116.953 10.3493 119.168 12.4262C121.383 14.5493 122.445 17.3185 122.445 20.78C122.445 24.1954 121.337 26.9646 119.168 29.0877C116.953 31.2108 114.045 32.2723 110.445 32.2723H101.122V9.28772H110.445ZM109.983 26.7339C111.829 26.7339 113.26 26.18 114.414 25.0723C115.522 23.9646 116.076 22.5339 116.076 20.78C116.076 19.0262 115.522 17.5954 114.414 16.4877C113.306 15.38 111.829 14.8262 109.983 14.8262H107.445V26.6877H109.983V26.7339Z" fill="white"/>
<path d="M127.66 25.3954C128.629 25.3954 129.46 25.7646 130.153 26.4569C130.799 27.1492 131.122 27.98 131.122 28.9492C131.122 29.9646 130.799 30.7954 130.153 31.4415C129.506 32.0877 128.676 32.4569 127.66 32.4569C126.645 32.4569 125.86 32.1338 125.214 31.4415C124.568 30.7954 124.245 29.9646 124.245 28.9492C124.245 27.98 124.568 27.1492 125.214 26.4569C125.814 25.7184 126.645 25.3954 127.66 25.3954Z" fill="white"/>
<path d="M133.383 32.2723V9.28772H139.706V32.2723H133.383Z" fill="white"/>
<path d="M154.153 8.78003C157.476 8.78003 160.337 9.93388 162.599 12.2416C164.86 14.5954 166.014 17.4108 166.014 20.78C166.014 24.1493 164.86 26.9646 162.599 29.2723C160.291 31.6262 157.476 32.78 154.153 32.78C150.829 32.78 148.014 31.6262 145.706 29.2723C143.399 26.9646 142.245 24.1493 142.245 20.78C142.245 17.4108 143.399 14.5954 145.706 12.2416C148.014 9.93388 150.829 8.78003 154.153 8.78003ZM154.153 26.8262C155.722 26.8262 157.06 26.2262 158.122 25.0723C159.137 23.9185 159.691 22.4877 159.691 20.7339C159.691 19.0262 159.183 17.5954 158.122 16.3954C157.06 15.2416 155.768 14.6416 154.153 14.6416C152.583 14.6416 151.245 15.2416 150.229 16.3954C149.168 17.5493 148.66 18.98 148.66 20.7339C148.66 22.4877 149.168 23.9185 150.229 25.0723C151.291 26.2723 152.583 26.8262 154.153 26.8262Z" fill="white"/>
</svg>
