<svg width="32" height="32" viewBox="0 0 32 32" fill="none" xmlns="http://www.w3.org/2000/svg">
<path d="M28.778 9.58215C28.4706 8.43409 27.5684 7.53189 26.4204 7.22457C24.3393 6.66699 16 6.66699 16 6.66699C16 6.66699 7.66059 6.66699 5.58179 7.22457C4.43372 7.53189 3.53152 8.43409 3.2242 9.58215C2.66663 11.661 2.66663 16.0008 2.66663 16.0008C2.66663 16.0008 2.66663 20.3406 3.2242 22.4194C3.53152 23.5675 4.43372 24.4696 5.58179 24.777C7.66059 25.3346 16 25.3346 16 25.3346C16 25.3346 24.3393 25.3346 26.4181 24.777C27.5662 24.4696 28.4684 23.5675 28.7757 22.4194C29.3333 20.3406 29.3333 16.0008 29.3333 16.0008C29.3333 16.0008 29.3333 11.661 28.7757 9.58215H28.778ZM13.3329 20.0003V12.0012L20.2608 16.0008L13.3329 20.0003Z" fill="white"/>
</svg>
